<?xml version="1.0" encoding="UTF-8" standalone="no"?>
<!-- Created with Inkscape (http://www.inkscape.org/) -->

<svg
   version="1.1"
   id="svg2"
   width="299.61612"
   height="299.77634"
   viewBox="0 0 299.61612 299.77634"
   sodipodi:docname="bash.png"
   inkscape:version="1.1.2 (0a00cf5339, 2022-02-04)"
   xmlns:inkscape="http://www.inkscape.org/namespaces/inkscape"
   xmlns:sodipodi="http://sodipodi.sourceforge.net/DTD/sodipodi-0.dtd"
   xmlns="http://www.w3.org/2000/svg"
   xmlns:svg="http://www.w3.org/2000/svg">
  <defs
     id="defs6" />
  <sodipodi:namedview
     id="namedview4"
     pagecolor="#505050"
     bordercolor="#eeeeee"
     borderopacity="1"
     inkscape:pageshadow="0"
     inkscape:pageopacity="0"
     inkscape:pagecheckerboard="0"
     showgrid="false"
     inkscape:zoom="1.0470143"
     inkscape:cx="296.08"
     inkscape:cy="185.28878"
     inkscape:window-width="1920"
     inkscape:window-height="990"
     inkscape:window-x="0"
     inkscape:window-y="0"
     inkscape:window-maximized="1"
     inkscape:current-layer="g8" />
  <g
     inkscape:groupmode="layer"
     inkscape:label="Image"
     id="g8"
     transform="translate(-132.90059,-19.434666)">
    <path
       style="fill:#ffffff;stroke-width:0.67775"
       d="m 189.28375,303.2603 c -16.14472,-2.77185 -29.13065,-12.3377 -36.09945,-26.59205 -5.13225,-10.49777 -4.78978,-2.87723 -4.78978,-106.57939 0,-99.969165 -0.10042,-96.982739 3.55132,-105.621704 5.55658,-13.145319 15.92755,-22.727971 29.65842,-27.404034 l 5.422,-1.846472 93.86835,-0.190233 c 105.8625,-0.21454 98.7017,-0.546428 109.97522,5.09711 11.20684,5.610165 19.77072,15.731114 24.13972,28.528791 l 1.77389,5.196068 0.1975,92.512854 c 0.13768,64.48266 -0.0261,93.81789 -0.54057,96.82012 -3.21438,18.75831 -15.25087,32.41246 -34.22217,38.82147 l -4.74425,1.60274 -92.51285,0.099 c -50.88206,0.0545 -93.93687,-0.14547 -95.67735,-0.44429 z m 190.16873,-16.09313 c 11.51005,-4.38364 19.94809,-14.16731 22.0248,-25.53713 0.50371,-2.75774 0.73139,-31.93702 0.72452,-92.85172 -0.009,-75.925318 -0.15534,-89.446575 -1.01038,-93.07308 -2.87358,-12.187904 -11.59994,-21.437414 -23.28067,-24.676378 -4.23402,-1.174061 -9.34551,-1.240159 -95.3071,-1.232547 -76.56375,0.0072 -91.40474,0.160179 -94.4717,0.976476 -12.78237,3.402156 -22.59882,14.310863 -24.4588,27.180305 -0.94121,6.512232 -0.94013,176.673874 0.002,182.615364 1.60321,10.11976 9.17904,20.59602 17.84493,24.67689 8.12804,3.82759 4.67868,3.70803 103.103,3.57368 l 90.81847,-0.12395 4.01179,-1.52791 z m -96.52462,-70.65245 v -6.09975 h 42.02049 42.02048 v 6.09975 6.09975 h -42.02048 -42.02049 z m -83.8945,-28.45566 0.1924,-7.60805 30.49874,-12.75814 c 16.77431,-7.01698 30.44511,-12.98634 30.37955,-13.26526 -0.0655,-0.27891 -13.78999,-6.20157 -30.49875,-13.16144 l -30.37954,-12.65431 -0.19164,-7.55756 c -0.10539,-4.15665 -0.10539,-7.55516 0,-7.55226 0.1054,0.003 18.79586,7.76045 41.53437,17.23895 l 41.34274,17.23366 0.19285,6.38876 0.19285,6.38876 -3.24272,1.38288 c -3.96765,1.69201 -78.1258,32.71415 -79.34309,33.19113 -0.68365,0.26786 -0.82892,-1.28979 -0.67776,-7.26712 z"
       id="path30" />
  </g>
</svg>
