<?xml version="1.0" encoding="UTF-8" standalone="no"?>
<!-- Created with Inkscape (http://www.inkscape.org/) -->

<svg
   version="1.1"
   id="svg2"
   width="500"
   height="500"
   viewBox="0 0 500 500"
   sodipodi:docname="bootstrap-logo.png"
   inkscape:version="1.1.2 (0a00cf5339, 2022-02-04)"
   xmlns:inkscape="http://www.inkscape.org/namespaces/inkscape"
   xmlns:sodipodi="http://sodipodi.sourceforge.net/DTD/sodipodi-0.dtd"
   xmlns="http://www.w3.org/2000/svg"
   xmlns:svg="http://www.w3.org/2000/svg">
  <defs
     id="defs6" />
  <sodipodi:namedview
     id="namedview4"
     pagecolor="#505050"
     bordercolor="#eeeeee"
     borderopacity="1"
     inkscape:pageshadow="0"
     inkscape:pageopacity="0"
     inkscape:pagecheckerboard="0"
     showgrid="false"
     inkscape:zoom="0.808"
     inkscape:cx="346.53465"
     inkscape:cy="297.0297"
     inkscape:window-width="1920"
     inkscape:window-height="990"
     inkscape:window-x="0"
     inkscape:window-y="0"
     inkscape:window-maximized="1"
     inkscape:current-layer="g8" />
  <g
     inkscape:groupmode="layer"
     inkscape:label="Image"
     id="g8">
    <path
       style="fill:#000000"
       d="M 31.342436,498.36283 C 15.690226,494.94857 3.8960563,482.24978 1.1827563,465.8899 0.42928631,461.34689 0.19083631,395.11028 0.39074631,245.8899 0.65995631,44.932635 0.78043631,32.086217 2.4415163,27.220676 6.1454163,16.371388 17.267146,5.4693947 28.029896,2.1378507 33.331786,0.49668466 46.903266,0.38989866 250.17677,0.38989866 c 203.2735,0 216.84498,0.106786 222.14686,1.74795204 11.07347,3.427725 22.17742,14.5317163 25.60522,25.6051833 1.6411,5.301885 1.7479,18.873366 1.7479,222.146866 0,203.2735 -0.1068,216.84498 -1.7479,222.14686 -3.3316,10.76276 -14.23357,21.88448 -25.08286,25.58839 -4.87005,1.66262 -17.61227,1.77501 -220.16922,1.94208 -179.698724,0.14821 -216.040054,-0.0495 -221.334334,-1.2044 z M 298.67677,384.4049 c 16.04468,-2.63302 26.6572,-6.29101 38.91821,-13.41457 18.72344,-10.87819 30.86287,-28.80189 34.27085,-50.60043 4.19508,-26.8331 -4.74643,-54.00352 -22.65187,-68.83185 -3.9439,-3.26613 -15.57741,-9.53589 -22.9119,-12.34814 -2.22766,-0.85414 -1.96552,-1.14984 4.23318,-4.77497 23.38591,-13.6766 33.37794,-37.85692 28.11495,-68.03712 -3.94162,-22.60293 -18.42313,-38.9443 -40.8018,-46.04196 -17.77183,-5.63655 -20.102,-5.78208 -99.42162,-6.20949 l -73.25,-0.39471 V 249.82078 385.8899 l 72.25,-0.004 c 58.97757,-0.003 73.90331,-0.27534 81.25,-1.48098 z m -93.5,-82.06787 v -36.55286 l 39.75,0.33612 c 35.89171,0.3035 40.23532,0.51785 44.75,2.20825 11.00382,4.12011 18.10646,11.25594 20.95433,21.05226 2.04867,7.04718 2.02418,21.74847 -0.0464,27.82516 -3.39972,9.97766 -14.29787,18.19766 -27.42795,20.68773 -2.88911,0.54791 -21.61654,0.99621 -41.61647,0.99621 h -36.36351 z m 0,-109.89008 V 160.8899 l 27.25,0.0178 c 27.10977,0.0177 40.80038,0.84162 48.51904,2.92004 6.20454,1.67071 13.32227,6.99243 16.70182,12.48747 2.89335,4.7045 3.02914,5.42173 3.02914,16 0,9.79657 -0.28422,11.63111 -2.4627,15.89569 -2.66686,5.22063 -8.5592,10.09411 -16.0373,13.26425 -4.09748,1.73702 -7.74253,1.93544 -40.75,2.21827 l -36.25,0.31061 v -31.55705 z"
       id="path845" />
  </g>
</svg>
