<?xml version="1.0" encoding="UTF-8" standalone="no"?>
<!-- Created with Inkscape (http://www.inkscape.org/) -->

<svg
   version="1.1"
   id="svg2"
   width="699.92346"
   height="786.57544"
   viewBox="0 0 699.92346 786.57544"
   sodipodi:docname="css.svg"
   inkscape:version="1.1.2 (0a00cf5339, 2022-02-04)"
   xmlns:inkscape="http://www.inkscape.org/namespaces/inkscape"
   xmlns:sodipodi="http://sodipodi.sourceforge.net/DTD/sodipodi-0.dtd"
   xmlns="http://www.w3.org/2000/svg"
   xmlns:svg="http://www.w3.org/2000/svg">
  <defs
     id="defs6" />
  <sodipodi:namedview
     id="namedview4"
     pagecolor="#505050"
     bordercolor="#eeeeee"
     borderopacity="1"
     inkscape:pageshadow="0"
     inkscape:pageopacity="0"
     inkscape:pagecheckerboard="0"
     showgrid="false"
     inkscape:zoom="0.20612245"
     inkscape:cx="-252.27723"
     inkscape:cy="451.18812"
     inkscape:window-width="1920"
     inkscape:window-height="990"
     inkscape:window-x="0"
     inkscape:window-y="0"
     inkscape:window-maximized="1"
     inkscape:current-layer="g8" />
  <g
     inkscape:groupmode="layer"
     inkscape:label="Image"
     id="g8"
     transform="translate(-0.03826,-193.21227)">
    <path
       style="fill:#000000"
       d="M 207.5,941.96517 C 129.95,921.02668 66.34739,903.77642 66.16087,903.63126 65.97434,903.4861 51.26279,745.49495 33.46853,552.5398 15.67426,359.58466 0.87298,199.79977 0.57679,197.46227 l -0.53853,-4.25 H 350 699.96174 l -0.54037,4.25 c -0.2972,2.3375 -15.09808,162.12199 -32.89085,355.07664 -17.79276,192.95466 -32.50349,350.95287 -32.6905,351.10714 -0.56224,0.4638 -281.17752,75.87246 -283.34002,76.14086 -1.1,0.13653 -65.45,-16.88325 -143,-37.82174 z M 437.97897,805.58955 c 48.68657,-14.09249 89.0162,-26.12999 89.62141,-26.75 0.91134,-0.93362 23.56026,-255.47408 23.43522,-263.37728 l -0.0356,-2.25 -100.25,-0.0304 c -63.9987,-0.0194 -99.66026,-0.37488 -98.61912,-0.98303 0.89698,-0.52394 47.43409,-20.51986 103.4158,-44.43539 55.98171,-23.91552 102.16344,-43.86129 102.62608,-44.32393 0.92674,-0.92674 9.71287,-85.00828 8.96148,-85.75967 -0.25717,-0.25716 -99.22645,-0.46757 -219.93175,-0.46757 H 127.73832 l 0.51738,3.25 c 0.28457,1.7875 2.6948,21.1375 5.35608,43 l 4.83868,39.75 111.02477,0.0304 c 64.13156,0.0176 110.39122,0.40085 109.52477,0.90747 -0.825,0.48239 -48.75,20.5417 -106.5,44.57625 -57.75,24.03455 -105.2821,43.98869 -105.6269,44.34253 -0.34479,0.35384 0.87726,19.09334 2.71567,41.64334 1.8384,22.55 3.35801,41.276 3.37689,41.61332 0.0189,0.33733 67.75804,0.82353 150.53145,1.08044 82.7734,0.25692 150.73045,0.70047 151.01566,0.98567 0.55442,0.55442 -6.02956,110.72298 -6.64627,111.21081 -0.20158,0.15945 -22.51622,6.51046 -49.5881,14.11336 l -49.2216,13.82345 -44.2784,-11.22582 c -24.35312,-6.1742 -45.86975,-11.63925 -47.81474,-12.14454 l -3.53634,-0.91871 -2.28949,-28.26899 c -1.25922,-15.54793 -2.54544,-31.08148 -2.85826,-34.51898 l -0.56878,-6.25 H 203.3554 c -41.57195,0 -44.35616,0.10982 -44.36754,1.75 -0.0151,2.17802 11.16771,131.6788 11.39339,131.93929 0.1271,0.1467 176.57763,52.70104 178.59772,53.19386 0.26343,0.0643 40.31343,-11.41337 89,-25.50587 z"
       id="path12"
       sodipodi:nodetypes="sssscccsssssssscsssssscsscsssssssssscsscsscssssss" />
  </g>
</svg>
