<?xml version="1.0" encoding="UTF-8" standalone="no"?>
<!-- Created with Inkscape (http://www.inkscape.org/) -->

<svg
   version="1.1"
   id="svg2"
   width="266.66666"
   height="266.66666"
   viewBox="0 0 266.66666 266.66666"
   sodipodi:docname="english.png"
   inkscape:version="1.1.2 (0a00cf5339, 2022-02-04)"
   xmlns:inkscape="http://www.inkscape.org/namespaces/inkscape"
   xmlns:sodipodi="http://sodipodi.sourceforge.net/DTD/sodipodi-0.dtd"
   xmlns="http://www.w3.org/2000/svg"
   xmlns:svg="http://www.w3.org/2000/svg">
  <defs
     id="defs6" />
  <sodipodi:namedview
     id="namedview4"
     pagecolor="#505050"
     bordercolor="#eeeeee"
     borderopacity="1"
     inkscape:pageshadow="0"
     inkscape:pageopacity="0"
     inkscape:pagecheckerboard="0"
     showgrid="false"
     inkscape:zoom="1.5150001"
     inkscape:cx="-37.623761"
     inkscape:cy="168.31683"
     inkscape:window-width="1920"
     inkscape:window-height="990"
     inkscape:window-x="0"
     inkscape:window-y="0"
     inkscape:window-maximized="1"
     inkscape:current-layer="g8" />
  <g
     inkscape:groupmode="layer"
     inkscape:label="Image"
     id="g8">
    <path
       style="fill:#000000;stroke-width:1.33333"
       d="m 65.333328,210.09653 v -17.49835 l -27.72987,-0.42987 C 7.3887482,191.69992 4.0612782,190.91348 1.2738182,183.58191 0.54451825,181.66372 -1.7529297e-6,158.33399 -1.7529297e-6,129.00601 V 77.780514 L 3.8892482,73.426146 l 3.88925,-4.354369 46.1107498,-0.383168 46.11075,-0.383167 v 30.18166 c 0,33.480488 0.641882,36.673978 8.497712,42.277588 3.95504,2.82116 5.78123,3.00796 35.59007,3.64042 l 31.42114,0.66666 6.24553,5.50143 6.24555,5.50143 v 12.23145 c 0,13.2502 -1.76884,18.72941 -7.0138,21.72617 -2.17784,1.24432 -13.13964,1.8212 -40.49459,2.13108 l -37.50839,0.42491 -14.491612,13.43369 c -7.97038,7.38853 -16.44161,15.26503 -18.82494,17.50332 l -4.33334,4.06963 z M 201.11482,142.05517 185.56298,127.73844 185.44816,109.40511 185.33333,91.071776 H 151.2697 117.20608 L 117.60304,82.738443 118,74.40511 151.66666,74.048882 185.33333,73.692654 V 56.382216 39.071777 h 7.33333 7.33333 V 56.40511 73.738443 h 33.33334 33.33333 v 8.666667 8.666666 h -33.33333 -33.33334 v 17.999994 c 0,15.11111 0.32099,18 2,18 1.63743,0 2,-2.29629 2,-12.66666 0,-6.96667 0.37227,-12.66667 0.82726,-12.66667 0.455,0 10.205,5.55 21.66666,12.33333 l 20.83942,12.33334 -14.95674,0.3766 -14.95673,0.3766 -0.3766,14.6068 -0.3766,14.6068 z m -74.78149,-15.9108 C 125.05,125.81357 124,125.02287 124,124.38727 c 0,-0.6356 9.59773,-6.92621 21.3283,-13.97914 19.26728,-11.584328 21.87639,-12.783868 27,-12.413268 L 178,98.405112 154.10113,112.40511 c -26.49796,15.52254 -24.56331,14.56529 -27.7678,13.73926 z m 13.03665,-0.84952 c 5.4185,-3.66091 39.0559,-23.55641 39.82692,-23.55641 0.4417,0 0.8031,5.7 0.8031,12.66667 v 12.66666 h -21.63002 c -18.44653,0 -21.24292,-0.26152 -19,-1.77692 z m 100.08429,-14.66106 -19.87905,-12.228678 5.30128,-0.39806 c 4.56624,-0.34286 7.69227,1.01552 22.54572,9.796948 9.48444,5.60725 17.47995,10.42188 17.76777,10.69917 0.88131,0.84902 -2.75264,4.57537 -4.35325,4.46395 -0.82688,-0.0576 -10.44899,-5.60756 -21.38247,-12.33333 z M 117.60574,106.07177 118,97.071772 l 15.33249,-0.38011 c 12.99311,-0.32211 15.02747,-0.10378 13.33333,1.43099 -2.32428,2.105628 -27.39232,16.949118 -28.62409,16.949118 -0.45663,0 -0.65282,-4.05 -0.43599,-9 z m 133.46435,0.55298 c -7.47811,-4.5208 -14.02811,-8.669638 -14.55555,-9.219638 -0.52745,-0.55 6.04101,-1 14.59656,-1 h 15.55556 v 9.333328 c 0,5.13333 -0.45,9.28217 -1,9.21964 -0.55,-0.0625 -7.11845,-3.81253 -14.59657,-8.33333 z M 137.33333,57.604373 c -16.81137,-9.949557 -18.97426,-11.989862 -15.97127,-15.066082 1.08988,-1.116462 41.75974,22.033846 43.41576,24.713343 0.39208,0.634412 -1.57252,1.120241 -4.3658,1.079623 -3.8798,-0.05642 -9.32784,-2.588648 -23.07869,-10.726884 z m 70.06666,9.566002 c 0.69667,-0.679104 11.65235,-7.335194 24.34595,-14.791311 18.7588,-11.018761 23.7274,-13.39391 26.54143,-12.687637 4.71142,1.182496 3.87276,1.852073 -20.69823,16.525022 -16.93919,10.11549 -21.35019,12.188661 -25.93333,12.188661 -3.41066,0 -5.0381,-0.472171 -4.25582,-1.234735 z M 117.33333,58.40511 c 0,-4.766666 0.36667,-8.666666 0.81483,-8.666666 0.78735,0 21.12961,11.953021 26.48185,15.560616 2.26347,1.525661 0.54463,1.772717 -12.33334,1.772717 h -14.96334 z m 133.75413,-0.002 c 7.93145,-4.765574 14.68145,-8.664666 15,-8.664666 0.31856,0 0.5792,3.9 0.5792,8.666666 v 8.666667 l -15,-0.002 -15,-0.002 14.4208,-8.664648 z M 203.99999,51.891791 V 39.071777 h 20.93334 c 11.58286,0 20.36754,0.50576 19.66666,1.132268 -0.69666,0.622747 -8.76666,5.518702 -17.93333,10.879899 -9.16667,5.361197 -18.01667,10.620682 -19.66667,11.687745 l -3,1.940115 z m -45.33333,-0.299868 c -10.63333,-6.291046 -19.58333,-11.681688 -19.88889,-11.979206 -0.30555,-0.297517 8.84445,-0.54094 20.33333,-0.54094 H 180 v 12 c 0,6.6 -0.45,11.990643 -1,11.979205 -0.55,-0.01147 -9.7,-5.168013 -20.33334,-11.459059 z"
       id="path845" />
  </g>
</svg>
