<?xml version="1.0" encoding="UTF-8" standalone="no"?>
<svg
   xmlns:dc="http://purl.org/dc/elements/1.1/"
   xmlns:cc="http://creativecommons.org/ns#"
   xmlns:rdf="http://www.w3.org/1999/02/22-rdf-syntax-ns#"
   xmlns:svg="http://www.w3.org/2000/svg"
   xmlns="http://www.w3.org/2000/svg"
   xmlns:sodipodi="http://sodipodi.sourceforge.net/DTD/sodipodi-0.dtd"
   xmlns:inkscape="http://www.inkscape.org/namespaces/inkscape"
   version="1.1"
   width="462.5"
   height="500"
   id="svg3068"
   sodipodi:docname="favicon.svg"
   inkscape:version="0.92.4 (5da689c313, 2019-01-14)">
  <defs
     id="defs8" />
  <sodipodi:namedview
     pagecolor="#ffffff"
     bordercolor="#666666"
     borderopacity="1"
     objecttolerance="10"
     gridtolerance="10"
     guidetolerance="10"
     inkscape:pageopacity="0"
     inkscape:pageshadow="2"
     inkscape:window-width="1280"
     inkscape:window-height="963"
     id="namedview6"
     showgrid="false"
     inkscape:zoom="0.472"
     inkscape:cx="235.48729"
     inkscape:cy="250"
     inkscape:window-x="0"
     inkscape:window-y="0"
     inkscape:window-maximized="1"
     inkscape:current-layer="svg3068" />
  <metadata
     id="metadata2">
    <rdf:RDF>
      <cc:Work>
        <dc:title>Euclid Initial Letter G</dc:title>
        <dc:description>Based on font designed for project c82.net and based on original design by Mary Byfield in 1847 for Byrne's Euclid Book</dc:description>
        <dc:subject>
          <rdf:Bag>
            <rdf:li>inital</rdf:li>
            <rdf:li>letter</rdf:li>
            <rdf:li>character</rdf:li>
            <rdf:li>clip_art</rdf:li>
            <rdf:li>public_domain</rdf:li>
            <rdf:li>element</rdf:li>
            <rdf:li>ornament</rdf:li>
          </rdf:Bag>
        </dc:subject>
        <dc:publisher>
          <cc:Agent
             rdf:about="http://www.openclipart.org">
            <dc:title>Open Clip Art Library</dc:title>
          </cc:Agent>
        </dc:publisher>
        <dc:creator>
          <cc:Agent>
            <dc:title>Jakub Jankiewicz</dc:title>
          </cc:Agent>
        </dc:creator>
        <dc:rights>
          <cc:Agent>
            <dc:title>Jakub Jankiewicz</dc:title>
          </cc:Agent>
        </dc:rights>
        <dc:date />
        <dc:format>image/svg+xml</dc:format>
        <dc:type
           rdf:resource="http://purl.org/dc/dcmitype/StillImage" />
        <cc:license
           rdf:resource="http://web.resource.org/cc/PublicDomain" />
        <dc:language>pl</dc:language>
      </cc:Work>
      <cc:License
         rdf:about="http://web.resource.org/cc/PublicDomain">
        <cc:permits
           rdf:resource="http://web.resource.org/cc/Reproduction" />
        <cc:permits
           rdf:resource="http://web.resource.org/cc/Distribution" />
        <cc:permits
           rdf:resource="http://web.resource.org/cc/DerivativeWorks" />
      </cc:License>
    </rdf:RDF>
  </metadata>
  <path
     d="m 450.625,20 v 230 230 q 0,6.25 -6.25,6.25 H 18.124999 q -6.25,0 -6.25,-6.25 V 20 q 0,-6.25 6.25,-6.25 H 444.375 q 6.25,0 6.25,6.25 z M 70.624999,97.5 v 1.25 q 26.25,-11.25 43.750001,-5 6.25,0 7.5,-1.25 1.25,-5 -2.5,-8.75 -1.25,-1.25 -5,-3.75 l -2.5,-2.5 q 0,-2.5 3.75,-2.5 28.75,-6.25 40,-2.5 h 7.5 q 1.25,-2.5 -6.25,-7.5 h -2.5 q -2.5,-1.25 -3.75,-1.25 -3.75,0 -3.75,-1.25 0,-2.5 3.75,-2.5 42.5,-10 65,-10 h 42.5 q 6.25,0 6.25,-2.5 0,-1.25 -5,-1.25 -10,0 -15,-1.25 -28.75,-7.5 -75,-2.5 h -10 q -1.25,-2.5 1.25,-5 1.25,-1.25 1.25,-1.25 1.25,-1.25 1.25,-2.5 3.75,-3.75 2.5,-6.25 -1.25,-1.25 -6.25,1.25 -27.5,8.75 -35,12.5 -10,6.25 -11.25,-5 -1.25,-3.75 -8.75,-8.75 -2.5,-2.5 -5.000001,2.5 -1.25,2.5 -23.75,25 -3.75,3.75 -5,2.5 -1.25,0 -1.25,-6.25 0,-11.25 -11.25,-16.25 -2.5,-2.5 -5,-1.25 -2.5,1.25 -1.25,5 2.5,6.25 -3.75,27.5 0,3.75 -1.25,5 -1.25,1.25 -6.25,-3.75 l -1.25,-1.25 q -1.25,-1.25 -1.25,-2.5 -5,-5 -8.75,-2.5 -3.75,1.25 -1.25,7.5 5,30 10,43.75 v 7.5 q -1.25,1.25 -2.5,0 l -2.5,-2.5 q -5,-2.5 -5,-1.25 0,2.5 1.25,3.75 3.75,5 3.75,21.25 0,1.25 -2.5,15 -2.5,13.75 -1.25,21.25 0,1.25 0,5 0,6.25 3.75,7.5 5,0 5,-11.25 0,-31.25 31.25,-60 6.25,-6.25 13.75,-3.75 h 5 q 1.25,-3.75 -1.25,-6.25 -3.75,-6.25 -8.75,-7.5 -6.25,0 -7.5,-3.75 z M 365.625,66.25 q -21.25,5 -66.25,5 -52.5,0 -102.5,6.25 -70,12.5 -111.250001,55 -40,41.25 -47.5,83.75 -1.25,8.75 6.25,8.75 3.75,0 6.25,1.25 23.75,6.25 21.25,27.5 -2.5,21.25 -25,23.75 -7.5,1.25 -7.5,10 1.25,26.25 18.75,58.75 8.75,15 33.75,40 30.000001,31.25 70.000001,42.5 60,16.25 108.75,0 38.75,-15 65,-33.75 30,-26.25 55,-77.5 0,-2.5 1.25,-6.25 1.25,-5 2.5,-6.25 0,-6.25 -6.25,-5 -8.75,1.25 -16.25,-6.25 -7.5,-7.5 -8.75,-15 -1.25,-22.5 20,-30 11.25,-3.75 7.5,-13.75 -5,-23.75 -21.25,-50 -38.75,-61.25 -113.75,-71.25 -56.25,-8.75 -108.75,33.75 -7.5,5 -18.75,17.5 -10,12.5 -16.25,17.5 -2.5,2.5 -1.25,3.75 2.5,2.5 5,0 12.5,-5 23.75,-20 3.75,-3.75 5,-3.75 1.25,0 1.25,6.25 -3.75,13.75 3.75,25 7.5,12.5 17.5,8.75 7.5,-2.5 7.5,-5 l -6.25,-3.75 q -16.25,-6.25 -10,-21.25 11.25,-26.25 40,-37.5 28.75,-11.25 53.75,-3.75 51.25,17.5 71.25,62.5 41.25,95 -11.25,172.5 -31.25,41.25 -86.25,47.5 -28.75,1.25 -56.25,-13.75 -56.25,-28.75 -70.000001,-81.25 -15,-72.5 -1.25,-126.25 15.000001,-56.25 75.000001,-85 61.25,-31.25 135,-8.75 41.25,12.5 70,47.5 5,7.5 0,11.25 -2.5,2.5 -6.25,-3.75 -5,-2.5 -6.25,-1.25 -7.5,10 5,13.75 6.25,2.5 12.5,-1.25 6.25,-5 7.5,-11.25 1.25,-11.25 -3.75,-20 -5,-5 -3.75,-13.75 0,-6.25 -7.5,-6.25 -6.25,1.25 -12.5,-5 -1.25,-1.25 -6.25,-6.25 -5,-5 -8.75,-6.25 -7.5,-2.5 0,-6.25 1.25,0 11.25,-3.75 11.25,-5 17.5,-3.75 11.25,1.25 11.25,-1.25 0,-2.5 -1.25,-6.25 0,-1.25 1.25,-3.75 l 1.25,-2.5 q 6.25,-15 0,-26.25 -1.25,-7.5 -12.5,-7.5 -6.25,0 -12.5,7.5 -5,7.5 3.75,11.25 3.75,2.5 6.25,-3.75 l 1.25,-2.5 q 0,-2.5 1.25,-1.25 5,1.25 2.5,6.25 0,11.25 -13.75,13.75 z M 178.125,325 q 20,-30 65,-30 17.5,0 25,3.75 l 1.25,1.25 q 2.5,1.25 2.5,2.5 0,2.5 -3.75,2.5 -22.5,0 -35,23.75 -11.25,20 -28.75,20 -5,0 -7.5,1.25 -7.5,3.75 -7.5,13.75 0,1.25 5,-1.25 1.25,0 2.5,0 1.25,0 3.75,0 l 2.5,1.25 q 13.75,3.75 23.75,-2.5 1.25,-1.25 2.5,-3.75 2.5,-2.5 3.75,-3.75 1.25,-1.25 2.5,-1.25 2.5,2.5 1.25,5 0,1.25 -2.5,5 -1.25,2.5 -1.25,3.75 -1.25,15 -18.75,26.25 l -1.25,1.25 q -2.5,1.25 -2.5,2.5 0,1.25 5,1.25 28.75,0 37.5,-27.5 1.25,-2.5 1.25,-8.75 2.5,-5 3.75,-5 1.25,-1.25 5,2.5 5,8.75 16.25,6.25 7.5,-2.5 7.5,-8.75 0,-1.25 -6.25,-5 -10,-3.75 -13.75,-12.5 -3.75,-10 2.5,-18.75 11.25,-15 30,-5 17.5,10 20,11.25 5,2.5 5,-1.25 2.5,-5 -1.25,-7.5 -7.5,-1.25 -32.5,-20 -43.75,-31.25 -95,-5 -18.75,10 -26.25,33.75 -7.5,22.5 5,41.25 3.75,3.75 1.25,5 l -3.75,-2.5 q -11.25,-11.25 -11.25,-28.75 0,-2.5 -1.25,-2.5 l -2.5,1.25 q -1.25,12.5 -13.75,30 v 3.75 q 1.25,1.25 2.5,1.25 1.25,-1.25 1.25,-2.5 3.75,-2.5 8.75,-10 2.5,-7.5 5,0 l 1.25,3.75 q 1.25,3.75 2.5,5 7.5,16.25 22.5,7.5 3.75,-3.75 0,-7.5 -12.5,-7.5 -15,-21.25 -1.25,-15 6.25,-25 z m 3.75,-50 h 47.5 q 22.5,0 38.75,5 2.5,2.5 5,1.25 1.25,-1.25 -2.5,-5 -7.5,-10 -32.5,-25 -8.75,-5 -8.75,-5 1.25,-1.25 2.5,-1.25 2.5,0 5,1.25 2.5,1.25 3.75,1.25 1.25,1.25 2.5,1.25 1.25,0 2.5,2.5 2.5,1.25 3.75,-1.25 l -2.5,-6.25 q -18.75,-30 -28.75,-38.75 -3.75,-2.5 -2.5,-5 1.25,-1.25 2.5,0 1.25,1.25 2.5,1.25 2.5,2.5 3.75,2.5 v -5 q 1.25,-16.25 -17.5,-25 -8.75,-5 -15,0 -6.25,6.25 1.25,8.75 8.75,3.75 13.75,20 2.5,12.5 10,18.75 l 3.75,7.5 q -1.25,1.25 -7.5,-1.25 -17.5,-7.5 -27.5,3.75 -2.5,5 -1.25,7.5 1.25,3.75 6.25,1.25 13.75,-2.5 21.25,7.5 7.5,7.5 30,18.75 l 5,2.5 q -1.25,1.25 -6.25,1.25 h -1.25 q -1.25,-1.25 -2.5,-1.25 -20,-10 -46.25,-1.25 -15,3.75 -25,1.25 -5,-2.5 -7.5,0 -1.25,1.25 0,6.25 0,5 6.25,11.25 1.25,1.25 5,1.25 2.5,2.5 2.5,2.5 0,1.25 -10,5 -1.25,1.25 -8.75,3.75 -15,5 -25,-10 -2.5,-5 -2.5,-10 -2.5,-3.75 -5,-3.75 -3.75,0 -3.75,3.75 -11.25,17.5 7.5,33.75 13.75,11.25 27.5,1.25 3.75,-3.75 2.5,-5 -2.5,-2.5 1.25,-3.75 10,-1.25 27.5,-11.25 10,-3.75 10,-7.5 0,-2.5 -2.5,-2.5 -1.25,-1.25 -5,-1.25 -2.5,-1.25 -3.75,-2.5 0,-1.25 -1.25,-1.25 -3.75,0 -1.25,-2.5 0,-1.25 2.5,-1.25 z M 44.374999,383.75 V 360 q 3.75,-18.75 -10,-35 0,-1.25 -1.25,-2.5 0,-1.25 -1.25,0 -1.25,0 -1.25,3.75 v 15 q 1.25,10 0,20 0,8.75 1.25,20 1.25,10 5,18.75 1.25,5 -5,8.75 -5,2.5 -7.5,12.5 v 5 q 2.5,1.25 5,-1.25 13.75,-5 26.25,0 11.25,6.25 20,3.75 15,-2.5 16.25,10 0,1.25 1.25,3.75 2.5,1.25 2.5,2.5 12.500001,12.5 23.750001,2.5 2.5,-3.75 -1.25,-5 -13.75,-8.75 -8.75,-22.5 2.5,-6.25 -3.75,-12.5 -7.500001,-3.75 -13.750001,0 -8.75,2.5 -18.75,-3.75 -8.75,-6.25 -7.5,-15 v -6.25 q -3.75,-1.25 -8.75,3.75 l -3.75,7.5 q 0,5 -1.25,5 -2.5,0 -5,-5 -2.5,-5 -2.5,-10 z M 356.875,400 q -16.25,10 -16.25,26.25 0,8.75 7.5,12.5 5,2.5 6.25,1.25 v -5 q -3.75,-15 10,-21.25 18.75,-7.5 27.5,11.25 1.25,2.5 3.75,7.5 2.5,3.75 3.75,6.25 1.25,6.25 6.25,1.25 6.25,-5 5,-12.5 -3.75,-12.5 -2.5,-21.25 2.5,-10 0,-36.25 -2.5,-27.5 18.75,-35 6.25,-1.25 1.25,-6.25 -8.75,-6.25 -20,-1.25 -10,3.75 -12.5,15 -2.5,21.25 1.25,31.25 1.25,1.25 1.25,5 0,3.75 1.25,5 0,3.75 -1.25,3.75 -1.25,0 -3.75,-2.5 -5,-10 -16.25,-18.75 -3.75,-3.75 -7.5,1.25 -2.5,2.5 1.25,6.25 13.75,13.75 16.25,22.5 l 2.5,8.75 q -1.25,1.25 -8.75,-2.5 -13.75,-7.5 -25,-2.5 z m -66.25,-148.75 q -1.25,2.5 -1.25,10 3.75,21.25 5,22.5 5,6.25 17.5,21.25 1.25,2.5 2.5,1.25 1.25,0 -1.25,-2.5 -11.25,-23.75 -12.5,-30 -2.5,-17.5 11.25,-17.5 13.75,-2.5 6.25,-13.75 -5,-8.75 -15,-8.75 -10,-1.25 -16.25,5 -6.25,6.25 -10,-1.25 -5,-16.25 -6.25,-27.5 -2.5,-17.5 15,-22.5 6.25,-2.5 7.5,-5 1.25,-3.75 -3.75,-8.75 -13.75,-7.5 -25,-2.5 -15,3.75 -11.25,20 2.5,7.5 2.5,10 0,35 25,68.75 0,5 3.75,2.5 1.25,0 1.25,-3.75 0,-12.5 1.25,-18.75 0,-3.75 3.75,-3.75 3.75,1.25 0,5 z m -70,-108.75 q -6.25,10 -6.25,17.5 -1.25,10 7.5,11.25 2.5,0 2.5,3.75 3.75,37.5 38.75,83.75 2.5,2.5 3.75,2.5 1.25,-1.25 -1.25,-5 -11.25,-17.5 -13.75,-48.75 0,-8.75 -3.75,-16.25 -20,-27.5 -18.75,-46.25 0,-5 -3.75,-5 -2.5,0 -5,2.5 z m -85,38.75 q -3.75,0 -11.25,7.5 -6.25,7.5 -6.25,12.5 0,2.5 0,6.25 1.25,3.75 2.5,8.75 1.25,5 1.25,7.5 0,3.75 3.75,3.75 l 3.75,-3.75 q 1.25,-1.25 5,-8.75 3.75,-7.5 6.25,-11.25 2.5,-5 2.5,-6.25 0,-2.5 -2.5,-7.5 -2.5,-5 -2.5,-7.5 -1.25,-1.25 -2.5,-1.25 z m 28.75,132.5 2.5,-2.5 -1.25,-2.5 q -3.75,0 -5,1.25 -16.25,13.75 -28.75,52.5 0,5 3.75,6.25 1.25,0 3.75,-2.5 l 5,-10 q 1.25,-3.75 7.5,-20 6.25,-16.25 12.5,-22.5 z M 46.874999,241.25 q -10,0 -10,8.75 0,10 8.75,10 10,0 10,-10 0,-8.75 -8.75,-8.75 z M 378.125,272.5 q 0,10 11.25,10 6.25,-1.25 6.25,-10 0,-8.75 -10,-8.75 -10,0 -7.5,8.75 z M 70.624999,97.5 v 1.25 Q 83.124999,82.5 104.375,85 q 6.25,0 6.25,-1.25 0,-1.25 -2.5,-2.5 l -2.5,-1.25 q -1.25,0 -5,0 -2.500001,-1.25 -3.750001,-2.5 0,-2.5 1.25,-3.75 2.500001,-1.25 3.750001,-1.25 2.5,-1.25 3.75,-2.5 1.25,0 3.75,-1.25 2.5,-1.25 3.75,-1.25 42.5,-16.25 72.5,-18.75 3.75,0 3.75,-1.25 0,-1.25 -3.75,-1.25 -17.5,0 -36.25,3.75 -3.75,1.25 -5,-1.25 0,-3.75 -5,-1.25 -6.25,3.75 -18.75,8.75 -11.25,5 -15,7.5 -2.5,2.5 -3.75,0 -1.25,-1.25 1.25,-3.75 v -1.25 q 1.25,-1.25 1.25,-2.5 3.75,-3.75 2.5,-5 -3.75,-2.5 -6.25,2.5 -5.000001,10 -17.500001,21.25 -1.25,1.25 -3.75,3.75 -5,5 -7.5,3.75 -1.25,-1.25 -1.25,-2.5 0,-2.5 0,-5 1.25,-3.75 1.25,-6.25 0,-5 -1.25,-5 -2.5,0 -2.5,5 l -7.5,18.75 q -1.25,5 -8.75,12.5 -1.25,-2.5 -2.5,-6.25 -1.25,-5 -2.5,-6.25 -1.25,-3.75 -3.75,-5 -3.75,1.25 -1.25,7.5 5,7.5 2.5,18.75 0,1.25 -2.5,13.75 -2.5,11.25 -5,17.5 -2.5,10 -2.5,17.5 -3.75,3.75 1.25,3.75 1.25,0 1.25,-2.5 3.75,-11.25 13.75,-31.25 5,-12.5 20,-18.75 7.5,0 7.5,-1.25 -1.25,-2.5 -3.75,-2.5 -2.5,0 -3.75,0 l -2.5,1.25 q -3.75,0 -3.75,-1.25 -1.25,-1.25 1.25,-3.75 0,-1.25 2.5,-2.5 z M 204.375,378.75 q 2.5,0 3.75,-1.25 -1.25,1.25 -1.25,3.75 0,3.75 1.25,3.75 2.5,2.5 2.5,-1.25 2.5,-1.25 0,-3.75 h -1.25 q -1.25,-1.25 -2.5,-1.25 0,-2.5 -1.25,-3.75 0,-3.75 -5,-1.25 -1.25,0 -1.25,2.5 1.25,2.5 5,2.5 z M 178.125,80 q 2.5,-2.5 2.5,-3.75 2.5,-2.5 0,-5 h -3.75 q -3.75,3.75 -1.25,5 0,1.25 2.5,3.75 z m -40,11.25 q 2.5,-3.75 0,-6.25 -1.25,-1.25 -3.75,1.25 -1.25,2.5 3.75,5 z m 77.5,-35 q -3.75,1.25 -3.75,6.25 0,1.25 0,2.5 0,2.5 1.25,3.75 1.25,0 5,-7.5 0,-5 -2.5,-5 z m 185,-17.5 q 0,5 3.75,5 3.75,-1.25 3.75,-6.25 0,-3.75 -3.75,-3.75 -5,2.5 -3.75,5 z m 40,163.75 q 3.75,0 5,-3.75 0,-2.5 -5,-5 -3.75,0 -3.75,3.75 -2.5,5 3.75,5 z m 5,-160 q 0,-5 -5,-5 -3.75,0 -3.75,3.75 0,2.5 5,5 3.75,0 3.75,-3.75 z m -187.5,401.25 q 0,-3.75 -3.75,-3.75 -5,1.25 -5,6.25 0,2.5 3.75,2.5 5,-2.5 5,-5 z m 180,-326.25 q 0,5 3.75,5 3.75,0 3.75,-5 0,-5 -3.75,-5 -3.75,0 -3.75,5 z m -8.75,151.25 q 2.5,0 2.5,-3.75 0,-5 -3.75,-5 -5,0 -3.75,5 0,3.75 5,3.75 z m -2.5,-77.5 q 5,0 5,-3.75 0,-5 -3.75,-5 -5,0 -5,3.75 0,5 3.75,5 z m 15,-97.5 q -3.75,0 -3.75,3.75 0,3.75 3.75,3.75 3.75,0 3.75,-2.5 0,-5 -3.75,-5 z m -112.5,375 q 0,3.75 3.75,3.75 3.75,-2.5 3.75,-5 0,-3.75 -2.5,-3.75 -5,0 -5,5 z M 423.125,450 q 0,3.75 3.75,3.75 3.75,0 3.75,-3.75 0,-3.75 -3.75,-3.75 -3.75,-1.25 -3.75,3.75 z m -48.75,20 q 3.75,0 3.75,-3.75 0,-3.75 -3.75,-3.75 -3.75,0 -3.75,5 0,3.75 3.75,2.5 z m -55,-350 q 3.75,0 3.75,-3.75 0,-3.75 -3.75,-3.75 -3.75,0 -5,3.75 0,3.75 5,3.75 z m -41.25,-98.75 q 1.25,3.75 5,5 3.75,-1.25 3.75,-3.75 -1.25,-3.75 -5,-3.75 -3.75,0 -3.75,2.5 z m 27.5,3.75 q 2.5,0 2.5,-3.75 0,-3.75 -3.75,-3.75 -3.75,0 -3.75,3.75 0,5 5,3.75 z m -83.75,-1.25 q -1.25,3.75 3.75,3.75 3.75,0 3.75,-3.75 0,-5 -3.75,-3.75 -3.75,0 -3.75,3.75 z m 205,103.75 q 0,3.75 3.75,3.75 3.75,0 3.75,-3.75 0,-3.75 -3.75,-3.75 -3.75,0 -3.75,3.75 z m 11.25,293.75 q 0,3.75 3.75,3.75 3.75,0 3.75,-5 0,-3.75 -3.75,-3.75 -3.75,0 -3.75,5 z m -21.25,-262.5 q 2.5,0 2.5,-3.75 0,-3.75 -5,-3.75 -1.25,0 -2.5,1.25 -1.25,1.25 0,2.5 0,3.75 5,3.75 z m -33.75,323.75 q 5,-1.25 5,-5 0,-3.75 -2.5,-3.75 -5,1.25 -5,5 0,3.75 2.5,3.75 z M 274.375,36.25 q 3.75,0 3.75,-3.75 0,-3.75 -3.75,-3.75 -3.75,0 -5,3.75 0,3.75 5,3.75 z m 163.75,102.5 q 0,3.75 3.75,3.75 3.75,0 3.75,-2.5 0,-3.75 -3.75,-3.75 -1.25,0 -3.75,2.5 z m -135,338.75 q 0,-3.75 -3.75,-3.75 -3.75,1.25 -3.75,5 -2.5,2.5 2.5,2.5 2.5,0 5,-3.75 z m 133.75,-260 q 0,3.75 3.75,3.75 3.75,0 3.75,-3.75 0,-3.75 -3.75,-3.75 -3.75,0 -3.75,3.75 z m -2.5,-110 q 0,-5 -5,-5 -2.5,0 -2.5,5 0,3.75 3.75,3.75 3.75,0 3.75,-3.75 z m -32.5,85 q 5,0 5,-5 0,-2.5 -2.5,-2.5 -5,0 -5,3.75 0,3.75 2.5,3.75 z m 5,-103.75 Q 408.125,85 403.125,85 l -2.5,1.25 q -1.25,1.25 -1.25,2.5 0,3.75 5,3.75 2.5,0 2.5,-3.75 z m 11.25,308.75 q 3.75,0 3.75,-3.75 0,-3.75 -2.5,-3.75 -3.75,-2.5 -3.75,2.5 -1.25,2.5 2.5,5 z M 16.874999,263.75 q 0,2.5 3.75,2.5 3.75,0 3.75,-3.75 0,-3.75 -3.75,-3.75 -3.75,0 -3.75,5 z M 226.875,63.75 q 0,2.5 3.75,2.5 3.75,0 3.75,-5 0,-2.5 -3.75,-2.5 -3.75,1.25 -3.75,5 z m 0,262.5 q 3.75,-1.25 3.75,-5 0,-3.75 -2.5,-3.75 -2.5,0 -5,5 0,3.75 3.75,3.75 z m 188.75,-145 q 2.5,0 2.5,-3.75 -2.5,-5 -5,-5 -3.75,0 -3.75,3.75 0,5 6.25,5 z M 291.875,33.75 q 0,3.75 3.75,3.75 3.75,0 3.75,-3.75 0,-3.75 -3.75,-3.75 -3.75,0 -3.75,3.75 z M 144.375,17.5 q -1.25,0 -3.75,3.75 0,3.75 3.75,3.75 3.75,0 3.75,-3.75 0,-3.75 -3.75,-3.75 z m 255,305 q 5,0 5,-3.75 0,-3.75 -2.5,-3.75 -3.75,0 -5,2.5 0,5 2.5,5 z M 323.125,65 q 1.25,0 3.75,-5 -2.5,-2.5 -5,-2.5 -2.5,0 -2.5,3.75 0,3.75 3.75,3.75 z m -140,-43.75 q 0,5 3.75,5 3.75,0 3.75,-3.75 0,-3.75 -3.75,-3.75 -3.75,0 -3.75,2.5 z m 16.25,40 q 0,2.5 3.75,2.5 3.75,0 3.75,-2.5 -1.25,-3.75 -3.75,-3.75 -3.75,0 -3.75,3.75 z m -168.750001,140 q -3.75,0 -3.75,3.75 0,3.75 5,3.75 2.5,-2.5 2.5,-5 0,-2.5 -3.75,-2.5 z m 2.5,-181.25 q -5,0 -5,3.75 0,3.75 3.75,3.75 3.75,0 3.75,-3.75 2.5,-3.75 -2.5,-3.75 z M 414.375,200 q 3.75,0 3.75,-3.75 0,-3.75 -2.5,-3.75 -3.75,0 -3.75,3.75 0,3.75 2.5,3.75 z m -127.5,252.5 q 1.25,-3.75 -2.5,-3.75 -5,0 -5,3.75 0,3.75 3.75,3.75 3.75,0 3.75,-3.75 z m 136.25,-166.25 q 0,3.75 3.75,3.75 3.75,0 3.75,-3.75 0,-3.75 -2.5,-5 -5,0 -5,5 z m -180,162.5 q -3.75,0 -3.75,3.75 0,3.75 3.75,3.75 3.75,0 3.75,-3.75 0,-3.75 -3.75,-3.75 z m 197.5,-5 q 3.75,-1.25 3.75,-5 0,-3.75 -3.75,-3.75 -3.75,0 -3.75,5 0,3.75 3.75,3.75 z M 346.875,27.5 q 3.75,0 3.75,-3.75 0,-3.75 -3.75,-5 -3.75,0 -3.75,3.75 0,2.5 3.75,5 z m 95,333.75 q -3.75,0 -3.75,3.75 0,3.75 3.75,3.75 3.75,0 3.75,-3.75 0,-3.75 -3.75,-3.75 z M 400.625,20 q -3.75,0 -3.75,3.75 0,3.75 3.75,3.75 3.75,0 3.75,-2.5 0,-5 -3.75,-5 z m -127.5,422.5 q 2.5,0 5,-3.75 0,-3.75 -3.75,-3.75 -3.75,0 -5,3.75 0,3.75 3.75,3.75 z m 153.75,-135 q 3.75,0 3.75,-3.75 l -1.25,-1.25 q -1.25,-2.5 -2.5,-2.5 -3.75,2.5 -3.75,5 0,5 3.75,2.5 z m -20,170 q -1.25,3.75 2.5,3.75 3.75,0 5,-5 0,-2.5 -2.5,-2.5 -5,0 -5,3.75 z m -182.5,-6.25 q 3.75,0 3.75,-3.75 0,-3.75 -3.75,-3.75 -1.25,0 -3.75,3.75 0,3.75 3.75,3.75 z m 173.75,-317.5 q 0,1.25 3.75,3.75 l 1.25,-1.25 q 2.5,-1.25 2.5,-2.5 0,-3.75 -2.5,-3.75 -2.5,0 -5,3.75 z m -36.25,298.75 q 0,2.5 2.5,2.5 3.75,0 3.75,-3.75 1.25,-1.25 0,-2.5 -1.25,-1.25 -2.5,-1.25 -3.75,0 -3.75,5 z m 80,-212.5 q 3.75,0 2.5,-3.75 0,-3.75 -3.75,-2.5 -3.75,0 -3.75,3.75 0,2.5 5,2.5 z m -88.75,230 q 1.25,0 5,-3.75 0,-3.75 -3.75,-3.75 -1.25,-1.25 -2.5,0 -1.25,1.25 -1.25,3.75 0,3.75 2.5,3.75 z m -107.5,-2.5 q 3.75,2.5 3.75,-2.5 0,-2.5 -2.5,-5 -3.75,0 -3.75,3.75 0,3.75 2.5,3.75 z m 158.75,-298.75 q 1.25,0 3.75,-3.75 l -1.25,-2.5 q -1.25,-1.25 -2.5,-1.25 -3.75,0 -3.75,5 0,3.75 3.75,2.5 z m 41.25,235 q 0,-5 -3.75,-5 -3.75,0 -3.75,2.5 0,5 3.75,5 3.75,1.25 3.75,-2.5 z m -2.5,-147.5 q 0,-3.75 -3.75,-3.75 -2.5,0 -2.5,3.75 0,6.25 3.75,3.75 5,0 2.5,-3.75 z m -112.5,46.25 q 0,-2.5 -3.75,-5 -3.75,0 -3.75,3.75 0,3.75 3.75,3.75 3.75,2.5 3.75,-2.5 z m 95,-156.25 q 0,5 3.75,5 3.75,0 3.75,-3.75 -3.75,-3.75 -5,-3.75 -1.25,1.25 -2.5,2.5 z m -30,146.25 q 0,3.75 3.75,3.75 3.75,0 3.75,-3.75 0,-3.75 -3.75,-3.75 -3.75,1.25 -3.75,3.75 z m 30,-241.25 q 0,3.75 3.75,3.75 3.75,0 3.75,-3.75 0,-3.75 -3.75,-3.75 -3.75,0 -3.75,3.75 z M 246.875,152.5 q 0,3.75 3.75,3.75 3.75,0 3.75,-3.75 -1.25,-3.75 -5,-3.75 -2.5,0 -2.5,3.75 z m 196.25,123.75 q 2.5,-3.75 -2.5,-3.75 -5,0 -5,3.75 0,3.75 3.75,3.75 3.75,0 3.75,-3.75 z m -61.25,181.25 q 0,3.75 3.75,3.75 3.75,0 3.75,-3.75 0,-5 -3.75,-3.75 -3.75,0 -3.75,3.75 z m 45,-286.25 q 3.75,0 3.75,-3.75 0,-3.75 -3.75,-3.75 -2.5,0 -2.5,5 0,2.5 2.5,2.5 z M 325.625,435 q 5,0 5,-3.75 0,-3.75 -5,-3.75 -2.5,2.5 -2.5,5 0,2.5 2.5,2.5 z m 102.5,-186.25 q 2.5,0 2.5,-3.75 2.5,-3.75 -2.5,-3.75 -1.25,-1.25 -3.75,3.75 0,3.75 3.75,3.75 z m -191.25,-150 q -5,0 -5,3.75 0,3.75 3.75,3.75 3.75,0 3.75,-3.75 0,-3.75 -2.5,-3.75 z m -73.75,368.75 q 3.75,0 3.75,-3.75 0,-3.75 -3.75,-3.75 -3.75,3.75 -2.5,5 0,2.5 2.5,2.5 z M 436.875,80 q -3.75,3.75 3.75,3.75 2.5,0 2.5,-3.75 0,-3.75 -3.75,-3.75 -2.5,0 -2.5,3.75 z m -261.25,147.5 q -3.75,0 -3.75,3.75 0,3.75 3.75,3.75 3.75,0 3.75,-3.75 0,-3.75 -3.75,-3.75 z M 53.124999,22.5 q 0,-2.5 -3.75,-3.75 -3.75,1.25 -3.75,3.75 -2.5,3.75 3.75,3.75 3.75,0 3.75,-3.75 z M 431.875,478.75 q 1.25,-3.75 -2.5,-3.75 -3.75,0 -3.75,2.5 0,5 2.5,5 3.75,0 3.75,-3.75 z m -71.25,0 q 0,3.75 3.75,3.75 2.5,-1.25 2.5,-5 0,-3.75 -2.5,-3.75 -3.75,0 -3.75,5 z m 67.5,-386.25 q 3.75,0 3.75,-3.75 0,-3.75 -3.75,-3.75 -3.75,1.25 -2.5,3.75 0,3.75 2.5,3.75 z M 304.375,215 q 0,3.75 3.75,3.75 3.75,0 3.75,-3.75 -1.25,-2.5 -3.75,-2.5 -3.75,0 -3.75,2.5 z m -17.5,-167.5 3.75,-3.75 q 0,-3.75 -2.5,-3.75 -3.75,0 -3.75,2.5 0,5 2.5,5 z m 157.5,410 q 0,-2.5 -3.75,-5 -2.5,1.25 -2.5,3.75 0,3.75 5,3.75 3.75,0 1.25,-2.5 z m -15,-420 q 3.75,0 3.75,-2.5 -2.5,-3.75 -5,-3.75 -2.5,0 -2.5,3.75 0,5 3.75,2.5 z m -305,218.75 q -1.25,1.25 -3.75,5 2.5,2.5 3.75,2.5 3.75,0 3.75,-3.75 0,-3.75 -3.75,-3.75 z m 202.5,-6.25 q -1.25,2.5 2.5,5 2.5,0 2.5,-2.5 0,-3.75 -2.5,-3.75 -2.5,0 -2.5,1.25 z m -33.75,185 q 1.25,1.25 3.75,-3.75 -2.5,-2.5 -3.75,-2.5 -2.5,0 -2.5,2.5 -2.5,3.75 2.5,3.75 z M 125.625,26.25 q 2.5,-1.25 2.5,-3.75 0,-3.75 -2.5,-3.75 -3.75,0 -3.75,3.75 1.25,3.75 3.75,3.75 z m -21.25,441.25 q 3.75,0 3.75,-5 0,-2.5 -2.5,-2.5 l -3.75,3.75 q 0,3.75 2.5,3.75 z M 16.874999,53.75 q 0,3.75 5,3.75 2.5,0 2.5,-3.75 -1.25,-2.5 -5,-2.5 -2.5,0 -2.5,2.5 z M 211.875,31.25 q 0,1.25 2.5,3.75 3.75,0 3.75,-3.75 1.25,-1.25 0,-2.5 -1.25,-1.25 -2.5,-1.25 -3.75,0 -3.75,3.75 z m 230,32.5 q 2.5,0 2.5,-3.75 0,-3.75 -2.5,-3.75 -3.75,0 -3.75,3.75 0,3.75 3.75,3.75 z m -13.75,145 q 3.75,0 3.75,-3.75 0,-3.75 -3.75,-3.75 -3.75,1.25 -3.75,5 0,2.5 3.75,2.5 z M 310.625,435 q 0,-2.5 -3.75,-3.75 -2.5,1.25 -2.5,5 0,2.5 2.5,2.5 3.75,0 3.75,-3.75 z m -28.75,-108.75 q 3.75,0 3.75,-3.75 0,-2.5 -2.5,-2.5 -3.75,0 -3.75,3.75 1.25,1.25 2.5,2.5 z m 35,-122.5 q 2.5,0 2.5,-3.75 0,-3.75 -3.75,-3.75 -3.75,0 -3.75,3.75 0,3.75 5,3.75 z m -10,132.5 q 1.25,0 3.75,-3.75 -2.5,-2.5 -3.75,-2.5 -1.25,1.25 -2.5,2.5 -1.25,3.75 2.5,3.75 z M 428.125,230 q 3.75,0 3.75,-3.75 0,-2.5 -3.75,-2.5 -2.5,0 -2.5,2.5 0,3.75 2.5,3.75 z m -158.75,240 q 2.5,0 2.5,-3.75 0,-3.75 -2.5,-3.75 -3.75,2.5 -3.75,5 0,2.5 3.75,2.5 z m 162.5,-7.5 q -3.75,2.5 -3.75,5 0,2.5 2.5,2.5 3.75,0 3.75,-3.75 0,-3.75 -2.5,-3.75 z m -68.75,-26.25 q 0,2.5 3.75,2.5 3.75,0 3.75,-3.75 0,-3.75 -3.75,-3.75 -3.75,0 -3.75,5 z M 53.124999,355 q -3.75,0 -3.75,3.75 0,3.75 3.75,3.75 l 2.5,-1.25 q 1.25,-1.25 1.25,-2.5 0,-3.75 -3.75,-3.75 z M 220.625,377.5 q 2.5,0 2.5,-3.75 0,-3.75 -2.5,-2.5 -3.75,0 -3.75,3.75 0,5 3.75,2.5 z m -68.75,60 q 1.25,-3.75 -3.75,-5 -2.5,2.5 -2.5,3.75 0,3.75 3.75,3.75 2.5,0 2.5,-2.5 z M 24.374999,230 q 0,-2.5 -3.75,-2.5 -3.75,0 -3.75,2.5 0,2.5 3.75,2.5 2.5,0 3.75,-2.5 z M 279.375,62.5 q 0,3.75 3.75,3.75 2.5,0 3.75,-2.5 0,-3.75 -3.75,-3.75 -3.75,0 -3.75,2.5 z m 138.75,57.5 q 2.5,0 3.75,-3.75 0,-3.75 -3.75,-3.75 -3.75,0 -3.75,3.75 0,3.75 3.75,3.75 z m 13.75,228.75 q 0,-2.5 -3.75,-2.5 -3.75,0 -3.75,3.75 0,2.5 3.75,2.5 3.75,0 3.75,-3.75 z M 420.625,380 q 2.5,0 2.5,-3.75 0,-2.5 -2.5,-2.5 -3.75,0 -3.75,3.75 0,5 3.75,2.5 z m -251.25,62.5 q 1.25,-3.75 -2.5,-3.75 -3.75,0 -3.75,3.75 0,2.5 3.75,2.5 2.5,0 2.5,-2.5 z m 226.25,-333.75 q -5,0 -5,3.75 0,3.75 3.75,3.75 3.75,-1.25 3.75,-5 0,-2.5 -2.5,-2.5 z m -177.5,228.75 3.75,-3.75 q -1.25,-3.75 -3.75,-3.75 -3.75,0 -3.75,3.75 0,3.75 3.75,3.75 z m 223.75,42.5 q -3.75,0 -3.75,3.75 0,3.75 3.75,3.75 3.75,0 3.75,-3.75 0,-1.25 -3.75,-3.75 z M 185.625,195 q 3.75,0 3.75,-3.75 0,-2.5 -3.75,-2.5 -2.5,0 -2.5,3.75 0,2.5 2.5,2.5 z m -25,35 q 2.5,-2.5 3.75,-5 -2.5,-2.5 -3.75,-2.5 -3.75,0 -3.75,3.75 0,3.75 3.75,3.75 z m 248.75,-12.5 q 0,2.5 3.75,2.5 3.75,0 3.75,-2.5 0,-2.5 -2.5,-2.5 -2.5,-1.25 -5,2.5 z m -45,-195 q 0,3.75 3.75,3.75 3.75,0 3.75,-2.5 0,-3.75 -3.75,-3.75 -3.75,0 -3.75,2.5 z m 56.25,297.5 q 3.75,0 3.75,-3.75 -2.5,-2.5 -5,-2.5 -2.5,0 -2.5,2.5 1.25,3.75 3.75,3.75 z m -237.5,128.75 q 3.75,0 3.75,-3.75 0,-3.75 -2.5,-3.75 -3.75,0 -3.75,2.5 0,3.75 2.5,5 z M 330.625,235 q 0,-3.75 -2.5,-3.75 -3.75,0 -3.75,3.75 0,2.5 3.75,2.5 1.25,1.25 1.25,0 1.25,-1.25 1.25,-2.5 z m 56.25,-212.5 q 0,-2.5 -2.5,-2.5 -3.75,0 -3.75,2.5 0,3.75 2.5,3.75 3.75,0 3.75,-3.75 z m 18.75,282.5 q 0,3.75 3.75,3.75 2.5,-2.5 2.5,-3.75 0,-3.75 -3.75,-3.75 -5,0 -2.5,3.75 z m 22.5,-233.75 q 2.5,0 2.5,-2.5 0,-3.75 -2.5,-3.75 -3.75,0 -3.75,2.5 0,3.75 3.75,3.75 z M 235.625,37.5 q 2.5,0 2.5,-3.75 0,-2.5 -3.75,-2.5 -2.5,0 -2.5,2.5 0,3.75 3.75,3.75 z m -18.75,71.25 q 3.75,0 3.75,-3.75 -2.5,-3.75 -3.75,-3.75 -2.5,1.25 -2.5,3.75 0,3.75 2.5,3.75 z m 223.75,188.75 q 2.5,0 2.5,-3.75 0,-3.75 -2.5,-3.75 -2.5,0 -2.5,3.75 -2.5,3.75 2.5,3.75 z m -352.500001,98.75 -3.75,-3.75 q -3.75,2.5 -3.75,3.75 0,3.75 3.75,3.75 3.75,0 3.75,-3.75 z M 368.125,93.75 q 0,-2.5 -3.75,-2.5 -2.5,0 -2.5,3.75 0,2.5 2.5,2.5 3.75,0 3.75,-3.75 z m -100,361.25 q 3.75,0 3.75,-2.5 0,-3.75 -2.5,-3.75 -3.75,0 -3.75,2.5 0,3.75 2.5,3.75 z m 150,-22.5 q 3.75,0 3.75,-3.75 -2.5,-2.5 -3.75,-2.5 -2.5,0 -2.5,2.5 0,3.75 2.5,3.75 z M 88.124999,22.5 q 0,-3.75 -3.75,-3.75 -3.75,0 -3.75,2.5 2.5,3.75 5,3.75 2.5,0 2.5,-2.5 z M 420.625,412.5 q 0,-3.75 -3.75,-3.75 -2.5,0 -2.5,3.75 0,2.5 2.5,2.5 1.25,0 3.75,-2.5 z m -276.25,-145 q 0,2.5 3.75,3.75 2.5,-2.5 2.5,-3.75 0,-3.75 -2.5,-3.75 -3.75,0 -3.75,3.75 z m 176.25,16.25 q 3.75,0 3.75,-5 0,-2.5 -2.5,-2.5 -3.75,0 -3.75,3.75 0,3.75 2.5,3.75 z m -168.75,-70 q 2.5,0 2.5,-3.75 0,-3.75 -2.5,-3.75 -3.75,0 -3.75,3.75 0,3.75 3.75,3.75 z m 292.5,-55 q 0,-3.75 -3.75,-3.75 -3.75,0 -3.75,3.75 0,2.5 3.75,2.5 3.75,0 3.75,-2.5 z M 310.625,40 q -3.75,0 -3.75,2.5 l 1.25,2.5 q 0,1.25 1.25,1.25 3.75,0 3.75,-2.5 0,-3.75 -2.5,-3.75 z m 22.5,231.25 q 0,-3.75 -3.75,-3.75 -2.5,0 -2.5,2.5 0,3.75 2.5,3.75 3.75,0 3.75,-2.5 z m 82.5,5 q 2.5,1.25 3.75,-2.5 0,-3.75 -3.75,-3.75 -3.75,0 -3.75,2.5 0,3.75 3.75,3.75 z M 278.125,160 q 0,-2.5 -2.5,-2.5 -3.75,0 -3.75,3.75 0,2.5 2.5,2.5 3.75,0 3.75,-3.75 z m -38.75,1.25 q 3.75,0 3.75,-3.75 0,-2.5 -2.5,-2.5 -3.75,0 -3.75,3.75 0,2.5 2.5,2.5 z m 68.75,296.25 q 3.75,0 3.75,-2.5 0,-3.75 -2.5,-3.75 -3.75,0 -3.75,2.5 0,3.75 2.5,3.75 z m 36.25,-408.75 q 0,2.5 3.75,2.5 2.5,0 2.5,-2.5 0,-3.75 -2.5,-3.75 -3.75,0 -3.75,3.75 z m -270.000001,-10 q 0,1.25 3.75,1.25 3.75,0 3.75,-3.75 0,-2.5 -2.5,-2.5 -5,0 -5,5 z m 272.500001,415 q 3.75,0 3.75,-2.5 -2.5,-3.75 -3.75,-3.75 -2.5,0 -2.5,3.75 0,2.5 2.5,2.5 z m -295.000001,7.5 q 0,3.75 2.5,3.75 3.75,0 3.75,-3.75 2.5,-2.5 -2.5,-2.5 -1.25,0 -3.75,2.5 z M 403.125,283.75 q 2.5,0 3.75,-3.75 0,-2.5 -3.75,-3.75 -2.5,0 -2.5,3.75 -1.25,1.25 0,2.5 1.25,1.25 2.5,1.25 z m -147.5,-247.5 q 0,-3.75 -3.75,-5 -2.5,2.5 -2.5,3.75 0,3.75 2.5,3.75 2.5,0 3.75,-2.5 z m 72.5,255 3.75,-3.75 q -2.5,-2.5 -3.75,-2.5 -2.5,0 -2.5,3.75 0,2.5 2.5,2.5 z m 87.5,160 q 1.25,1.25 2.5,0 1.25,-1.25 1.25,-2.5 -1.25,-2.5 -3.75,-2.5 -3.75,0 -3.75,3.75 1.25,1.25 3.75,1.25 z m -307.5,-202.5 q 3.75,0 3.75,-3.75 l -2.5,-2.5 q -1.25,-1.25 -2.5,0 -1.25,1.25 -1.25,3.75 0,2.5 2.5,2.5 z m 225,-215 q 0,3.75 3.75,3.75 3.75,-1.25 2.5,-3.75 0,-3.75 -2.5,-3.75 -3.75,2.5 -3.75,3.75 z m -101.25,417.5 q 3.75,0 3.75,-3.75 2.5,-3.75 -2.5,-3.75 -3.75,0 -3.75,3.75 0,1.25 2.5,3.75 z m 207.5,-268.75 q 3.75,0 3.75,-5 0,-2.5 -3.75,-2.5 -1.25,0 -2.5,1.25 -1.25,1.25 0,2.5 0,3.75 2.5,3.75 z M 290.625,465 q 0,3.75 2.5,3.75 3.75,0 3.75,-2.5 0,-3.75 -3.75,-3.75 -2.5,0 -2.5,2.5 z m -117.5,-278.75 q 0,2.5 2.5,2.5 2.5,0 2.5,-3.75 0,-2.5 -2.5,-2.5 -2.5,0 -2.5,3.75 z m 138.75,0 q 0,-3.75 -3.75,-3.75 -2.5,0 -2.5,3.75 0,2.5 2.5,2.5 1.25,0 3.75,-2.5 z M 299.375,445 q 0,-3.75 -2.5,-3.75 -3.75,1.25 -3.75,5 2.5,2.5 3.75,2.5 1.25,0 2.5,-1.25 1.25,-1.25 0,-2.5 z m -96.25,21.25 q 0,3.75 2.5,3.75 2.5,0 2.5,-2.5 0,-3.75 -2.5,-3.75 -2.5,0 -2.5,2.5 z m 32.5,-153.75 q 3.75,0 3.75,-3.75 0,-3.75 -2.5,-3.75 -3.75,0 -3.75,3.75 0,3.75 2.5,3.75 z m 182.5,-253.75 q 2.5,-2.5 2.5,-3.75 -2.5,-2.5 -3.75,-2.5 -2.5,0 -2.5,2.5 0,3.75 3.75,3.75 z m -335.000001,385 q 0,-2.5 -2.5,-2.5 -3.75,0 -3.75,3.75 1.25,2.5 3.75,2.5 2.5,0 2.5,-3.75 z M 263.125,61.25 q 0,3.75 2.5,3.75 3.75,0 3.75,-3.75 0,-2.5 -2.5,-2.5 -3.75,0 -3.75,2.5 z m -65,276.25 q 0,3.75 2.5,3.75 3.75,0 3.75,-2.5 0,-3.75 -2.5,-3.75 -3.75,0 -3.75,2.5 z M 68.124999,26.25 q 2.5,0 3.75,-3.75 0,-2.5 -3.75,-2.5 -2.5,0 -2.5,2.5 -2.5,3.75 2.5,3.75 z M 316.875,345 q 2.5,0 2.5,-5 0,-2.5 -3.75,-1.25 -2.5,0 -2.5,3.75 0,2.5 3.75,2.5 z m -265.000001,27.5 1.25,3.75 q 5,1.25 5,-2.5 0,-3.75 -3.75,-3.75 -2.5,0 -2.5,2.5 z m 206.250001,10 q -2.5,-1.25 -2.5,2.5 0,3.75 2.5,3.75 2.5,0 2.5,-3.75 0,-2.5 -2.5,-2.5 z m 148.75,-271.25 q 2.5,0 2.5,-2.5 0,-3.75 -2.5,-3.75 -3.75,0 -3.75,3.75 0,3.75 3.75,2.5 z m -15,92.5 q 2.5,0 2.5,-3.75 0,-2.5 -2.5,-2.5 -3.75,0 -3.75,2.5 0,3.75 3.75,3.75 z m -105,22.5 q 0,-3.75 -2.5,-3.75 -1.25,0 -2.5,1.25 -1.25,1.25 0,2.5 0,2.5 3.75,2.5 1.25,0 1.25,-2.5 z m -122.5,162.5 q 2.5,0 2.5,-3.75 0,-2.5 -3.75,-2.5 -2.5,0 -2.5,3.75 0,2.5 3.75,2.5 z m 133.75,-162.5 q 2.5,-2.5 2.5,-3.75 0,-5 -3.75,-2.5 -2.5,0 -2.5,2.5 0,3.75 3.75,3.75 z M 256.875,480 q 2.5,0 2.5,-2.5 0,-3.75 -3.75,-3.75 -2.5,2.5 -2.5,5 0,3.75 3.75,1.25 z m -62.5,-90 q 1.25,0 3.75,-2.5 0,-2.5 -3.75,-2.5 -2.5,0 -2.5,2.5 0,2.5 2.5,2.5 z m -20,5 q 3.75,0 3.75,-2.5 0,-2.5 -2.5,-2.5 -1.25,-1.25 -3.75,1.25 0,3.75 2.5,3.75 z m 242.5,-293.75 q 1.25,0 3.75,-2.5 0,-1.25 -2.5,-3.75 -3.75,0 -3.75,2.5 0,2.5 2.5,3.75 z M 315.625,425 q 0,-3.75 -3.75,-3.75 -2.5,0 -2.5,2.5 0,3.75 3.75,3.75 2.5,0 2.5,-2.5 z M 109.375,105 q 2.5,0 2.5,-2.5 0,-2.5 -2.5,-2.5 -2.5,0 -2.5,2.5 0,3.75 2.5,2.5 z m 42.5,145 q 0,-3.75 -2.5,-3.75 -3.75,0 -3.75,2.5 0,3.75 2.5,3.75 1.25,0 3.75,-2.5 z m 228.75,181.25 q 0,2.5 2.5,2.5 2.5,0 2.5,-2.5 0,-3.75 -2.5,-3.75 -2.5,0 -2.5,3.75 z m 60,-82.5 q 3.75,0 3.75,-2.5 0,-3.75 -2.5,-3.75 -3.75,0 -3.75,2.5 0,3.75 2.5,3.75 z m -52.5,-7.5 q -3.75,0 -3.75,2.5 0,2.5 2.5,2.5 3.75,0 3.75,-2.5 0,-2.5 -2.5,-2.5 z M 164.375,215 q 0,2.5 2.5,2.5 3.75,-1.25 2.5,-3.75 0,-2.5 -2.5,-2.5 -2.5,0 -2.5,3.75 z m 172.5,-90 q 0,-2.5 -3.75,-2.5 -2.5,0 -2.5,2.5 0,2.5 2.5,2.5 3.75,2.5 3.75,-2.5 z m 41.25,-20 q 1.25,0 3.75,-2.5 0,-3.75 -2.5,-3.75 -3.75,0 -3.75,2.5 0,3.75 2.5,3.75 z m -56.25,115 q 1.25,0 3.75,-3.75 0,-2.5 -2.5,-2.5 -3.75,0 -3.75,2.5 0,3.75 2.5,3.75 z m -185,217.5 q 0,-3.75 -2.5,-3.75 -2.5,0 -2.5,3.75 0,2.5 1.25,2.5 3.75,2.5 3.75,-2.5 z m 272.5,-368.75 q 2.5,0 2.5,-3.75 0,-3.75 -2.5,-3.75 -2.5,0 -2.5,2.5 0,3.75 2.5,5 z m -387.500001,270 q 0,-3.75 -2.5,-3.75 -2.5,0 -2.5,2.5 0,3.75 2.5,3.75 2.5,0 2.5,-2.5 z M 418.125,81.25 q 2.5,0 2.5,-2.5 0,-3.75 -3.75,-3.75 -2.5,2.5 -2.5,3.75 0,3.75 3.75,2.5 z M 126.875,330 q 0,2.5 2.5,2.5 2.5,0 2.5,-2.5 0,-2.5 -2.5,-2.5 -2.5,0 -2.5,2.5 z m 293.75,-195 q -1.25,-1.25 -5,-3.75 -2.5,2.5 -2.5,3.75 1.25,2.5 3.75,2.5 3.75,0 3.75,-2.5 z m 20,190 q 0,-3.75 -2.5,-3.75 -3.75,0 -3.75,3.75 0,2.5 2.5,2.5 3.75,0 3.75,-2.5 z m -200,-183.75 q 2.5,-2.5 2.5,-3.75 0,-2.5 -2.5,-2.5 -3.75,0 -3.75,3.75 0,2.5 3.75,2.5 z m -128.75,87.5 q 2.5,-1.25 2.5,-3.75 0,-3.75 -2.5,-3.75 -2.5,1.25 -2.5,3.75 0,3.75 2.5,3.75 z m 7.5,95 q 2.5,0 2.5,-2.5 0,-1.25 -1.25,-2.5 0,-1.25 -1.25,0 -2.5,0 -2.5,2.5 0,1.25 0,2.5 1.25,1.25 2.5,0 z m 260,118.75 q 0,-3.75 -3.75,-3.75 -2.5,0 -2.5,2.5 0,3.75 1.25,3.75 1.25,1.25 5,-2.5 z M 110.625,201.25 q 2.5,-2.5 -2.5,-2.5 -1.25,-1.25 -3.75,2.5 0,3.75 2.5,3.75 3.75,0 3.75,-3.75 z m 175,-3.75 q -2.5,0 -2.5,2.5 0,2.5 2.5,2.5 3.75,0 3.75,-2.5 0,-2.5 -3.75,-2.5 z m 55,-136.25 q 2.5,0 2.5,-2.5 0,-2.5 -2.5,-2.5 -2.5,0 -2.5,2.5 0,2.5 2.5,2.5 z m 61.25,82.5 q 3.75,0 3.75,-2.5 0,-3.75 -2.5,-3.75 -3.75,0 -3.75,3.75 0,2.5 2.5,2.5 z M 443.125,310 q 0,-3.75 -3.75,-3.75 -1.25,0 -1.25,2.5 0,3.75 2.5,3.75 5,0 2.5,-2.5 z m -126.25,137.5 q 2.5,0 2.5,-2.5 0,-2.5 -1.25,-3.75 -3.75,0 -3.75,2.5 0,3.75 2.5,3.75 z m 51.25,-25 q 0,2.5 2.5,2.5 3.75,0 3.75,-2.5 0,-3.75 -2.5,-3.75 -3.75,0 -3.75,3.75 z m -155,26.25 q 0,2.5 2.5,2.5 2.5,0 2.5,-3.75 0,-2.5 -2.5,-2.5 -2.5,0 -2.5,3.75 z m -58.75,2.5 q 1.25,-3.75 -2.5,-3.75 -2.5,0 -2.5,3.75 0,2.5 2.5,2.5 2.5,1.25 2.5,-2.5 z m 81.25,30 q 3.75,0 3.75,-3.75 0,-1.25 -1.25,-2.5 0,-1.25 -1.25,0 -2.5,0 -2.5,3.75 0,2.5 1.25,2.5 z M 101.875,290 q 1.25,0 3.75,-2.5 -1.25,-2.5 -3.75,-2.5 -2.500001,0 -2.500001,2.5 0,2.5 2.500001,2.5 z M 29.374999,233.75 q -3.75,0 -3.75,2.5 0,3.75 2.5,3.75 2.5,0 2.5,-2.5 1.25,-1.25 0,-2.5 0,-1.25 -1.25,-1.25 z m 3.75,48.75 q 1.25,-1.25 0,-2.5 0,-1.25 -1.25,-1.25 -3.75,0 -3.75,2.5 -2.5,3.75 1.25,3.75 3.75,2.5 3.75,-2.5 z M 421.875,42.5 q 0,-2.5 -2.5,-2.5 -3.75,0 -3.75,2.5 0,2.5 2.5,2.5 1.25,0 3.75,-2.5 z m -260,198.75 q 2.5,0 2.5,-3.75 0,-2.5 -2.5,-2.5 -3.75,0 -3.75,3.75 1.25,3.75 3.75,2.5 z M 135.625,480 q 3.75,-2.5 3.75,-3.75 0,-3.75 -2.5,-3.75 -3.75,2.5 -3.75,3.75 0,3.75 2.5,3.75 z m -35,-5 q 0,-2.5 -2.500001,-2.5 -3.75,0 -3.75,3.75 0,3.75 3.75,2.5 2.500001,0 2.500001,-3.75 z m 185,-366.25 q 3.75,0 3.75,-3.75 0,-2.5 -2.5,-2.5 -1.25,0 -3.75,2.5 0,3.75 2.5,3.75 z m 147.5,262.5 q 0,-3.75 -3.75,-3.75 -2.5,0 -2.5,2.5 0,1.25 2.5,3.75 3.75,0 3.75,-2.5 z m -32.5,96.25 q 0,-2.5 -3.75,-2.5 -2.5,0 -2.5,3.75 0,2.5 2.5,2.5 3.75,0 3.75,-3.75 z m -75,-442.5 q 2.5,0 2.5,-3.75 0,-3.75 -3.75,-3.75 -2.5,2.5 -2.5,3.75 0,3.75 3.75,3.75 z m 3.75,393.75 q 2.5,0 2.5,-2.5 0,-1.25 -1.25,-2.5 0,-1.25 -1.25,0 -3.75,0 -3.75,2.5 0,2.5 3.75,2.5 z M 291.875,160 q 0,-1.25 -2.5,-3.75 -3.75,0 -3.75,3.75 -1.25,1.25 0,2.5 1.25,1.25 2.5,0 3.75,0 3.75,-2.5 z m 100,-58.75 q 1.25,0 3.75,-2.5 0,-3.75 -3.75,-3.75 -2.5,0 -2.5,2.5 0,3.75 2.5,3.75 z m -88.75,12.5 q 1.25,-1.25 2.5,-3.75 0,-2.5 -2.5,-2.5 -3.75,0 -3.75,2.5 0,3.75 3.75,3.75 z M 404.375,265 q 1.25,0 3.75,-3.75 0,-2.5 -2.5,-2.5 -3.75,0 -3.75,2.5 -1.25,3.75 2.5,3.75 z m -170,197.5 q 0,3.75 2.5,3.75 2.5,0 2.5,-3.75 0,-3.75 -2.5,-3.75 -2.5,0 -2.5,3.75 z m -212.500001,3.75 q 2.5,0 2.5,-2.5 0,-1.25 -2.5,-3.75 -3.75,0 -3.75,2.5 0,3.75 3.75,3.75 z M 249.375,167.5 q 0,-2.5 -2.5,-2.5 -2.5,0 -2.5,3.75 0,2.5 2.5,2.5 2.5,0 2.5,-3.75 z m -213.750001,295 q 0,3.75 2.5,3.75 2.5,0 2.5,-3.75 0,-2.5 -2.5,-2.5 -2.5,0 -2.5,2.5 z M 169.375,178.75 q 1.25,0 3.75,-3.75 0,-2.5 -2.5,-2.5 -3.75,0 -3.75,2.5 0,3.75 2.5,3.75 z m 5,-147.5 q 0,3.75 2.5,3.75 2.5,0 2.5,-2.5 0,-2.5 -1.25,-3.75 -3.75,0 -3.75,2.5 z m -78.750001,72.5 q 3.75,0 3.75,-3.75 0,-2.5 -3.75,-2.5 -2.5,0 -2.5,3.75 0,2.5 2.5,2.5 z m 321.250001,150 q 0,-3.75 -2.5,-3.75 -3.75,0 -3.75,3.75 0,2.5 3.75,2.5 2.5,0 2.5,-2.5 z m -3.75,210 q 0,3.75 2.5,3.75 3.75,0 3.75,-3.75 0,-2.5 -2.5,-2.5 -2.5,-1.25 -3.75,2.5 z m -96.25,-432.5 q -3.75,0 -3.75,2.5 0,2.5 2.5,2.5 1.25,1.25 3.75,-1.25 0,-3.75 -2.5,-3.75 z m -158.75,225 q 1.25,1.25 1.25,0 1.25,-1.25 1.25,-2.5 0,-2.5 -2.5,-2.5 -2.5,0 -2.5,2.5 0,2.5 2.5,2.5 z m -10,208.75 q 0,-3.75 -2.5,-3.75 -1.25,0 -3.75,2.5 0,3.75 3.75,3.75 2.5,0 2.5,-2.5 z m 47.5,-250 q 0,1.25 2.5,3.75 2.5,0 2.5,-2.5 2.5,-3.75 -2.5,-3.75 -2.5,0 -2.5,2.5 z m 70,-112.5 q 0,3.75 2.5,3.75 2.5,0 2.5,-2.5 0,-1.25 -2.5,-3.75 -2.5,0 -2.5,2.5 z m -113.75,31.25 q 3.75,0 3.75,-2.5 0,-1.25 -1.25,-2.5 0,-1.25 -1.25,0 -3.75,0 -3.75,2.5 z m 168.75,347.5 q 3.75,0 3.75,-2.5 0,-1.25 -1.25,-2.5 0,-1.25 -1.25,0 -3.75,0 -3.75,2.5 0,2.5 2.5,2.5 z M 208.125,330 q 1.25,0 3.75,-2.5 0,-3.75 -2.5,-3.75 -3.75,0 -3.75,2.5 0,3.75 2.5,3.75 z m 138.75,-195 q 0,3.75 2.5,3.75 2.5,0 3.75,-2.5 0,-2.5 -2.5,-3.75 -3.75,0 -3.75,2.5 z m 72.5,-107.5 q 2.5,-2.5 2.5,-3.75 -2.5,-2.5 -3.75,-2.5 -2.5,0 -2.5,3.75 0,2.5 3.75,2.5 z m -308.75,296.25 q 2.5,0 2.5,-2.5 0,-3.75 -3.75,-2.5 -2.5,0 -2.5,2.5 2.5,2.5 3.75,2.5 z m 60,-301.25 q 2.5,0 2.5,-2.5 -1.25,-2.5 -3.75,-2.5 -2.5,0 -2.5,2.5 0,2.5 3.75,2.5 z M 311.875,470 q 3.75,0 3.75,-2.5 0,-3.75 -1.25,-3.75 -3.75,0 -3.75,2.5 0,3.75 1.25,3.75 z m 117.5,-78.75 q 1.25,0 3.75,-2.5 -2.5,-2.5 -3.75,-2.5 -3.75,0 -2.5,3.75 0,1.25 2.5,1.25 z m -393.750001,55 q 2.5,2.5 3.75,2.5 1.25,0 1.25,-2.5 0,-3.75 -2.5,-2.5 -2.5,0 -2.5,2.5 z M 355.625,38.75 q 1.25,0 3.75,-2.5 0,-3.75 -2.5,-3.75 -3.75,0 -3.75,3.75 0,2.5 2.5,2.5 z M 20.624999,410 q 2.5,0 2.5,-2.5 0,-2.5 -3.75,-2.5 -2.5,0 -2.5,2.5 0,5 3.75,2.5 z m 32.5,38.75 q 2.5,0 2.5,-3.75 0,-2.5 -2.5,-2.5 -2.5,0 -2.5,2.5 -2.5,3.75 2.5,3.75 z M 325.625,43.75 q 2.5,0 2.5,-2.5 0,-3.75 -2.5,-3.75 -3.75,0 -3.75,5 2.5,2.5 3.75,1.25 z m -43.75,432.5 q 0,-2.5 -2.5,-2.5 -2.5,0 -2.5,3.75 0,2.5 2.5,2.5 2.5,0 2.5,-3.75 z M 383.125,187.5 q 0,1.25 2.5,3.75 3.75,-1.25 3.75,-3.75 0,-2.5 -2.5,-2.5 -3.75,0 -3.75,2.5 z m -282.5,50 q 2.5,0 2.5,-2.5 0,-2.5 -2.5,-2.5 -1.250001,-1.25 -2.500001,0 -1.25,1.25 -1.25,2.5 0,2.5 3.750001,2.5 z m 155,-92.5 q 3.75,0 3.75,-3.75 0,-2.5 -2.5,-2.5 -3.75,0 -3.75,3.75 0,2.5 2.5,2.5 z m 115,242.5 q 1.25,0 1.25,-3.75 0,-2.5 -2.5,-2.5 -2.5,0 -2.5,3.75 0,2.5 3.75,2.5 z M 274.375,150 q 0,-1.25 -2.5,-3.75 -3.75,0 -3.75,2.5 0,3.75 2.5,3.75 2.5,1.25 3.75,-2.5 z m -21.25,-48.75 q 2.5,-2.5 -1.25,-2.5 -3.75,0 -3.75,2.5 0,3.75 3.75,3.75 1.25,-1.25 1.25,-3.75 z m -8.75,-77.5 q 2.5,0 2.5,-2.5 0,-2.5 -2.5,-2.5 -2.5,0 -2.5,2.5 0,3.75 2.5,2.5 z m 62.5,252.5 q 0,2.5 2.5,2.5 1.25,0 3.75,-2.5 0,-3.75 -3.75,-3.75 -2.5,0 -2.5,3.75 z M 63.124999,475 q -2.5,-2.5 -3.75,-2.5 -2.5,0 -2.5,3.75 2.5,2.5 3.75,2.5 2.5,0 2.5,-3.75 z m -42.5,-320 q -3.75,0 -3.75,2.5 0,1.25 2.5,3.75 1.25,0 3.75,-2.5 0,-1.25 -2.5,-3.75 z M 410.625,290 q 0,1.25 2.5,3.75 3.75,0 3.75,-3.75 0,-2.5 -2.5,-2.5 -3.75,0 -3.75,2.5 z m -257.5,-53.75 q 0,-2.5 -3.75,-2.5 -2.5,0 -2.5,2.5 0,2.5 2.5,2.5 1.25,1.25 3.75,-2.5 z m 138.75,131.25 q 0,1.25 2.5,3.75 3.75,-1.25 3.75,-3.75 0,-2.5 -2.5,-2.5 -3.75,0 -3.75,2.5 z M 20.624999,126.25 q 3.75,0 3.75,-2.5 -1.25,-2.5 -3.75,-2.5 -3.75,0 -3.75,2.5 1.25,2.5 3.75,2.5 z m 56.25,-1.25 q 0,2.5 2.5,2.5 2.5,0 2.5,-2.5 0,-2.5 -2.5,-2.5 -1.25,-1.25 -2.5,0 0,0 0,2.5 z M 415.625,360 q 0,2.5 3.75,2.5 2.5,0 2.5,-3.75 0,-2.5 -1.25,-2.5 -2.5,0 -5,3.75 z m -1.25,-121.25 q 1.25,0 3.75,-3.75 0,-2.5 -3.75,-2.5 -2.5,0 -2.5,2.5 0,3.75 2.5,3.75 z m -242.5,238.75 q 0,2.5 2.5,2.5 2.5,0 2.5,-3.75 0,-2.5 -2.5,-2.5 -2.5,0 -2.5,3.75 z m 131.25,-121.25 q 0,2.5 2.5,2.5 2.5,0 2.5,-2.5 0,-2.5 -2.5,-2.5 -2.5,0 -2.5,2.5 z M 204.375,20 q -1.25,0 -1.25,2.5 0,2.5 2.5,2.5 2.5,0 2.5,-2.5 -2.5,-2.5 -3.75,-2.5 z m -66.25,255 q 0,-2.5 -2.5,-2.5 -3.75,0 -3.75,2.5 0,2.5 2.5,2.5 2.5,0 3.75,-2.5 z m 195,180 q 0,2.5 2.5,3.75 2.5,0 2.5,-3.75 0,-2.5 -2.5,-2.5 -1.25,-1.25 -2.5,0 0,1.25 0,2.5 z m 67.5,-403.75 q 0,3.75 2.5,3.75 2.5,0 2.5,-3.75 0,-2.5 -1.25,-2.5 -3.75,0 -3.75,2.5 z m -1.25,402.5 q 0,3.75 2.5,3.75 2.5,0 2.5,-2.5 1.25,-3.75 -1.25,-3.75 -3.75,0 -3.75,2.5 z M 29.374999,305 q 2.5,1.25 2.5,-2.5 0,-2.5 -2.5,-2.5 -3.75,0 -2.5,2.5 0,2.5 2.5,2.5 z m -3.75,143.75 q 0,-1.25 -3.75,-3.75 -2.5,2.5 -2.5,3.75 0,2.5 3.75,2.5 2.5,0 2.5,-2.5 z M 428.125,407.5 q -2.5,0 -3.75,2.5 2.5,2.5 3.75,2.5 2.5,0 2.5,-2.5 0,-2.5 -1.25,-2.5 0,-1.25 -1.25,0 z M 171.875,455 q 0,3.75 2.5,3.75 2.5,0 2.5,-3.75 0,-2.5 -1.25,-2.5 -3.75,0 -3.75,2.5 z m 151.25,5 q 1.25,-1.25 1.25,-3.75 0,-2.5 -2.5,-2.5 -2.5,0 -2.5,3.75 0,2.5 3.75,2.5 z M 38.124999,41.25 q 2.5,0 2.5,-3.75 0,-3.75 -2.5,-1.25 -5,0 -2.5,2.5 0,2.5 2.5,2.5 z m -18.75,155 q 2.5,0 2.5,-2.5 0,-2.5 -2.5,-3.75 -2.5,0 -2.5,2.5 0,2.5 2.5,3.75 z M 354.375,388.75 q 0,3.75 1.25,3.75 3.75,0 3.75,-2.5 0,-3.75 -2.5,-3.75 -2.5,0 -2.5,2.5 z m -135,-73.75 q 2.5,0 2.5,-2.5 0,-2.5 -1.25,-2.5 -3.75,0 -3.75,2.5 0,2.5 2.5,2.5 z M 70.624999,463.75 q 2.5,0 2.5,-2.5 0,-2.5 -1.25,-2.5 -2.5,0 -2.5,2.5 0,2.5 1.25,2.5 z M 183.125,356.25 q 1.25,0 1.25,-2.5 0,-2.5 -2.5,-2.5 -2.5,0 -2.5,2.5 0,2.5 3.75,2.5 z m 93.75,-298.75 2.5,-2.5 -2.5,-2.5 q -2.5,-1.25 -2.5,2.5 -2.5,2.5 2.5,2.5 z m -107.5,190 q 0,2.5 2.5,2.5 2.5,0 2.5,-2.5 0,-2.5 -2.5,-2.5 -2.5,0 -2.5,2.5 z m 185,-187.5 q 0,2.5 2.5,2.5 2.5,0 2.5,-2.5 0,-2.5 -2.5,-2.5 -2.5,0 -2.5,2.5 z m -173.75,53.75 q 0,3.75 2.5,3.75 2.5,0 2.5,-3.75 0,-2.5 -2.5,-2.5 -2.5,0 -2.5,2.5 z m 257.5,-90 q 0,-1.25 -2.5,-3.75 -2.5,2.5 -2.5,3.75 0,2.5 2.5,2.5 2.5,0 2.5,-2.5 z M 21.874999,387.5 q -3.75,0 -3.75,2.5 0,2.5 3.75,2.5 2.5,0 2.5,-1.25 0,-3.75 -2.5,-3.75 z M 230.625,405 q 0,2.5 2.5,2.5 2.5,0 2.5,-2.5 0,-2.5 -2.5,-2.5 -2.5,0 -2.5,2.5 z m 173.75,-200 q 2.5,0 2.5,-3.75 0,-2.5 -2.5,-2.5 -2.5,0 -2.5,2.5 -1.25,1.25 0,2.5 1.25,1.25 2.5,1.25 z m -106.25,121.25 q 0,-3.75 -2.5,-3.75 -2.5,0 -2.5,2.5 -1.25,1.25 0,2.5 1.25,1.25 2.5,1.25 z m -27.5,63.75 q 0,-2.5 -2.5,-2.5 -2.5,1.25 -2.5,3.75 0,2.5 2.5,2.5 2.5,0 2.5,-3.75 z m -77.5,-61.25 q 1.25,0 3.75,-2.5 0,-1.25 -2.5,-3.75 -3.75,0 -3.75,3.75 0,2.5 2.5,2.5 z m -82.5,-72.5 q 0,3.75 2.5,3.75 2.5,0 2.5,-2.5 0,-2.5 -2.5,-2.5 -2.5,-2.5 -2.5,1.25 z m 96.25,146.25 q 0,-1.25 -2.5,-3.75 -2.5,0 -2.5,2.5 -1.25,3.75 2.5,3.75 2.5,0 2.5,-2.5 z M 88.124999,465 q 2.5,0 2.5,-2.5 0,-3.75 -2.5,-3.75 -3.75,0 -3.75,3.75 0,2.5 3.75,2.5 z M 159.375,377.5 q 0,-1.25 -2.5,-3.75 -2.5,2.5 -2.5,3.75 0,2.5 2.5,2.5 2.5,0 2.5,-2.5 z m 28.75,-315 q 0,-1.25 -2.5,-1.25 -2.5,0 -2.5,2.5 0,2.5 3.75,2.5 1.25,-1.25 1.25,-3.75 z M 20.624999,38.75 q 2.5,0 2.5,-2.5 0,-2.5 -1.25,-2.5 -2.5,0 -2.5,2.5 0,2.5 1.25,2.5 z m 95.000001,300 q 3.75,0 3.75,-2.5 0,-2.5 -2.5,-2.5 -3.75,-1.25 -3.75,2.5 0,2.5 2.5,2.5 z m 161.25,-1.25 q 0,2.5 2.5,2.5 2.5,0 2.5,-2.5 0,-3.75 -2.5,-3.75 -2.5,0 -2.5,3.75 z m 63.75,141.25 q -1.25,1.25 1.25,3.75 3.75,0 3.75,-2.5 0,-3.75 -2.5,-3.75 -2.5,0 -2.5,2.5 z M 179.375,205 q 0,2.5 2.5,2.5 3.75,-2.5 3.75,-3.75 -2.5,-2.5 -3.75,-2.5 -2.5,2.5 -2.5,3.75 z m 126.25,1.25 q 2.5,0 2.5,-2.5 0,-2.5 -3.75,-2.5 -2.5,0 -2.5,2.5 0,1.25 1.25,2.5 1.25,1.25 2.5,0 z m -183.75,257.5 q 0,2.5 2.5,2.5 2.5,0 2.5,-3.75 0,-2.5 -2.5,-2.5 -2.5,1.25 -2.5,3.75 z m 285,-336.25 q -2.5,2.5 2.5,2.5 2.5,0 2.5,-2.5 0,-2.5 -1.25,-2.5 -3.75,-2.5 -3.75,2.5 z m -11.25,86.25 q 0,2.5 2.5,2.5 2.5,0 3.75,-3.75 0,-2.5 -2.5,-2.5 -1.25,0 -3.75,3.75 z m -205,185 q 0,-3.75 -2.5,-3.75 -2.5,0 -2.5,3.75 0,2.5 2.5,2.5 2.5,0 2.5,-2.5 z m 6.25,-327.5 q 1.25,0 1.25,-2.5 0,-2.5 -2.5,-2.5 -2.5,0 -2.5,2.5 0,2.5 3.75,2.5 z M 18.124999,360 q 3.75,0 3.75,-2.5 1.25,-3.75 -1.25,-3.75 -3.75,0 -3.75,2.5 -1.25,3.75 1.25,3.75 z M 185.625,337.5 q -2.5,0 -2.5,2.5 0,2.5 2.5,2.5 2.5,0 2.5,-2.5 0,-2.5 -2.5,-2.5 z m 208.75,-210 q 0,2.5 2.5,2.5 2.5,0 2.5,-2.5 0,-2.5 -2.5,-2.5 -2.5,0 -2.5,2.5 z m -6.25,318.75 q 1.25,1.25 1.25,0 1.25,-1.25 1.25,-2.5 0,-2.5 -2.5,-2.5 -2.5,0 -2.5,2.5 0,2.5 2.5,2.5 z m -192.5,1.25 q 0,2.5 2.5,2.5 2.5,0 2.5,-2.5 0,-2.5 -2.5,-2.5 -2.5,0 -2.5,2.5 z m 185,-155 q 0,1.25 2.5,1.25 2.5,0 2.5,-2.5 0,-2.5 -2.5,-2.5 -2.5,0 -2.5,3.75 z M 321.875,53.75 q 2.5,0 2.5,-2.5 0,-2.5 -1.25,-2.5 -2.5,0 -2.5,2.5 0,2.5 1.25,2.5 z m -22.5,0 q 2.5,0 2.5,-2.5 0,-2.5 -2.5,-2.5 -2.5,0 -2.5,3.75 0,3.75 2.5,1.25 z m 82.5,306.25 q 3.75,0 3.75,-2.5 0,-2.5 -2.5,-2.5 -2.5,0 -2.5,2.5 -2.5,2.5 1.25,2.5 z M 335.625,51.25 q 2.5,1.25 2.5,-2.5 0,-2.5 -2.5,-2.5 -1.25,1.25 -1.25,2.5 -2.5,2.5 1.25,2.5 z m -202.5,401.25 q 0,2.5 2.5,2.5 2.5,0 2.5,-2.5 0,-2.5 -1.25,-2.5 -1.25,0 -3.75,2.5 z m 91.25,-2.5 q -2.5,0 -2.5,2.5 0,3.75 2.5,2.5 l 1.25,-1.25 q 1.25,-1.25 0,-2.5 0,-1.25 -1.25,-1.25 z M 18.124999,282.5 q 2.5,0 2.5,-2.5 0,-2.5 -1.25,-2.5 -2.5,0 -2.5,2.5 -2.5,2.5 1.25,2.5 z M 258.125,158.75 q 0,2.5 2.5,2.5 2.5,0 2.5,-2.5 0,-2.5 -2.5,-2.5 z m -83.75,3.75 q 0,2.5 2.5,2.5 2.5,0 2.5,-3.75 0,-2.5 -2.5,-2.5 -2.5,1.25 -2.5,3.75 z m -61.25,103.75 q -2.5,0 -2.5,2.5 0,2.5 2.5,2.5 2.5,0 2.5,-2.5 0,-2.5 -2.5,-2.5 z m -81.250001,2.5 q 2.5,0 3.75,-2.5 0,-2.5 -2.5,-2.5 -2.5,0 -2.5,2.5 -2.5,2.5 1.25,2.5 z m 266.250001,-95 q 2.5,0 2.5,-2.5 0,-2.5 -2.5,-2.5 -2.5,0 -2.5,2.5 0,2.5 2.5,2.5 z m 95,2.5 q 2.5,0 2.5,-2.5 0,-2.5 -2.5,-2.5 -2.5,0 -2.5,2.5 0,3.75 2.5,2.5 z M 189.375,465 q 0,-3.75 -2.5,-3.75 -2.5,0 -2.5,2.5 0,3.75 1.25,3.75 1.25,0 3.75,-2.5 z m 72.5,-440 q 2.5,0 2.5,-2.5 0,-2.5 -2.5,-2.5 -2.5,1.25 -2.5,3.75 0,1.25 2.5,1.25 z m -43.75,377.5 q -3.75,0 -3.75,2.5 0,2.5 2.5,2.5 2.5,0 2.5,-2.5 0,-1.25 -1.25,-2.5 z m -86.25,-155 q 0,2.5 2.5,2.5 2.5,0 2.5,-2.5 0,-2.5 -2.5,-2.5 z M 19.374999,243.75 q -2.5,0 -2.5,2.5 0,2.5 2.5,2.5 2.5,2.5 2.5,-1.25 1.25,-3.75 -2.5,-3.75 z m 385.000001,5 q 2.5,0 2.5,-3.75 0,-2.5 -1.25,-2.5 -2.5,0 -2.5,2.5 -1.25,1.25 -1.25,2.5 1.25,1.25 2.5,1.25 z m -206.25,-142.5 q 0,1.25 2.5,3.75 2.5,-2.5 2.5,-3.75 0,-2.5 -3.75,-2.5 -1.25,0 -1.25,2.5 z M 73.124999,387.5 q 0,2.5 2.5,2.5 2.5,0 2.5,-2.5 0,-2.5 -2.5,-3.75 -2.5,0 -2.5,3.75 z M 119.375,242.5 q 2.5,0 2.5,-2.5 0,-2.5 -1.25,-2.5 -2.5,0 -2.5,1.25 -2.5,3.75 1.25,3.75 z m 33.75,-221.25 q 0,2.5 2.5,2.5 2.5,0 2.5,-2.5 0,-2.5 -3.75,-2.5 -1.25,0 -1.25,2.5 z m 248.75,205 q -2.5,0 -2.5,2.5 0,2.5 2.5,2.5 2.5,0 2.5,-2.5 0,-1.25 -1.25,-2.5 0,-1.25 -1.25,0 z m -206.25,255 q 2.5,0 2.5,-2.5 0,-2.5 -2.5,-2.5 -2.5,0 -2.5,2.5 0,2.5 2.5,2.5 z m -50,-258.75 q 2.5,-2.5 -1.25,-2.5 -2.5,0 -2.5,2.5 l 1.25,2.5 q 2.5,1.25 2.5,-2.5 z m 70,253.75 q -2.5,0 -2.5,2.5 0,2.5 2.5,2.5 2.5,0 2.5,-2.5 z m -35,-257.5 q 0,2.5 2.5,2.5 2.5,0 2.5,-2.5 0,-2.5 -2.5,-2.5 -2.5,0 -2.5,2.5 z m 112.5,-8.75 q 0,3.75 2.5,1.25 2.5,0 2.5,-2.5 0,-2.5 -2.5,-2.5 -2.5,2.5 -2.5,3.75 z m -10,3.75 q 2.5,0 2.5,-2.5 0,-2.5 -2.5,-2.5 -1.25,0 -3.75,2.5 0,2.5 3.75,2.5 z m 60,188.75 q 2.5,0 2.5,-1.25 0,-3.75 -1.25,-3.75 -2.5,0 -2.5,2.5 -2.5,2.5 1.25,2.5 z M 18.124999,211.25 q 0,3.75 2.5,3.75 2.5,0 2.5,-2.5 0,-3.75 -2.5,-3.75 z m 0,-35 q 0,2.5 2.5,2.5 2.5,0 2.5,-2.5 0,-2.5 -2.5,-2.5 -2.5,0 -2.5,2.5 z M 184.375,252.5 q 0,-2.5 -1.25,-2.5 -2.5,1.25 -2.5,2.5 0,2.5 0,3.75 1.25,0 2.5,-1.25 3.75,0 1.25,-2.5 z m 256.25,222.5 2.5,2.5 q 2.5,-2.5 2.5,-3.75 0,-2.5 -2.5,-2.5 -2.5,0 -2.5,3.75 z m -322.5,2.5 q 0,-2.5 -2.5,-2.5 -2.5,0 -2.5,1.25 0,3.75 2.5,3.75 z m 188.75,-356.25 q 2.5,2.5 2.5,-1.25 0,-2.5 -1.25,-2.5 -2.5,0 -2.5,1.25 0,2.5 1.25,2.5 z m -152.5,357.5 q 2.5,2.5 2.5,-1.25 0,-2.5 -1.25,-2.5 -2.5,0 -2.5,1.25 -2.5,2.5 1.25,2.5 z M 100.625,220 q 0,1.25 2.5,1.25 2.5,0 2.5,-2.5 0,-2.5 -2.5,-2.5 -2.5,0 -2.5,3.75 z m 35,42.5 q 0,1.25 2.5,1.25 2.5,0 2.5,-1.25 0,-2.5 -2.5,-2.5 -2.5,0 -2.5,2.5 z m 61.25,196.25 q 2.5,0 2.5,-2.5 0,-2.5 -2.5,-2.5 -2.5,0 -2.5,2.5 0,1.25 0,2.5 1.25,1.25 2.5,0 z M 19.374999,90 q 2.5,1.25 2.5,-1.25 0,-2.5 -1.25,-2.5 -2.5,0 -2.5,1.25 0,2.5 1.25,2.5 z M 145.625,278.75 q -2.5,0 -2.5,2.5 0,2.5 2.5,2.5 2.5,0 2.5,-2.5 z m 205,-128.75 q 0,2.5 2.5,2.5 2.5,0 2.5,-2.5 0,-2.5 -2.5,-2.5 -2.5,0 -2.5,2.5 z m -230,278.75 q 0,1.25 2.5,1.25 1.25,0 1.25,-2.5 0,-2.5 -2.5,-2.5 -1.25,0 -1.25,3.75 z M 28.124999,222.5 q 1.25,0 1.25,-2.5 0,-3.75 -2.5,-1.25 -2.5,0 -2.5,2.5 0,3.75 3.75,1.25 z M 426.875,426.25 q 0,2.5 2.5,2.5 2.5,0 2.5,-1.25 0,-2.5 -1.25,-2.5 -3.75,-2.5 -3.75,1.25 z m -23.75,-347.5 q 1.25,0 1.25,-2.5 0,-2.5 -2.5,-2.5 -2.5,0 -2.5,3.75 0,2.5 3.75,1.25 z m -381.250001,-7.5 -2.5,-2.5 q -2.5,0 -2.5,2.5 0,2.5 1.25,2.5 3.75,0 3.75,-2.5 z M 136.875,290 q 0,2.5 2.5,2.5 2.5,0 2.5,-2.5 0,-2.5 -1.25,-2.5 -3.75,0 -3.75,2.5 z m -117.500001,8.75 q 1.25,0 1.25,-2.5 0,-2.5 -1.25,-2.5 -2.5,0 -2.5,2.5 0,2.5 2.5,2.5 z M 203.125,143.75 q 0,2.5 2.5,2.5 2.5,0 2.5,-3.75 0,-2.5 -1.25,-2.5 -3.75,0 -3.75,3.75 z M 19.374999,140 q -2.5,2.5 1.25,2.5 2.5,0 2.5,-1.25 0,-2.5 -1.25,-2.5 -2.5,0 -2.5,1.25 z M 286.875,337.5 q 0,2.5 2.5,2.5 2.5,0 2.5,-1.25 0,-2.5 -2.5,-2.5 -1.25,0 -2.5,1.25 z m -92.5,-136.25 q 0,1.25 2.5,1.25 3.75,0 1.25,-2.5 0,-3.75 -2.5,-1.25 -3.75,0 -1.25,2.5 z M 68.124999,445 q 2.5,0 2.5,-2.5 0,-2.5 -1.25,-2.5 -2.5,0 -2.5,2.5 0,2.5 1.25,2.5 z M 189.375,150 q 0,2.5 2.5,2.5 2.5,0 2.5,-1.25 0,-2.5 -1.25,-2.5 -1.25,-1.25 -3.75,1.25 z m -133.750001,3.75 q 2.5,0 2.5,-2.5 0,-2.5 -2.5,-2.5 -2.5,0 -2.5,2.5 0,2.5 2.5,2.5 z M 303.125,61.25 q 0,-2.5 -2.5,-2.5 -1.25,0 -2.5,1.25 0,2.5 2.5,2.5 2.5,0 2.5,-1.25 z m -166.25,172.5 q 0,-2.5 -1.25,-2.5 -2.5,0 -2.5,2.5 0,2.5 2.5,2.5 3.75,0 1.25,-2.5 z m 258.75,21.25 -2.5,-2.5 -2.5,2.5 q 0,2.5 2.5,2.5 2.5,0 2.5,-2.5 z M 18.124999,313.75 q -1.25,0 -1.25,2.5 0,2.5 2.5,2.5 1.25,-1.25 1.25,-2.5 0,-2.5 -2.5,-2.5 z M 255.625,60 q 1.25,0 1.25,-2.5 0,-1.25 -2.5,-1.25 -3.75,0 -1.25,2.5 0,3.75 2.5,1.25 z M 61.874999,260 q 2.5,0 2.5,-2.5 0,-2.5 -2.5,-2.5 l -1.25,2.5 v 1.25 z M 193.125,250 q 0,2.5 2.5,2.5 2.5,0 2.5,-2.5 0,-2.5 -2.5,-2.5 z m 8.75,63.75 q 0,1.25 2.5,1.25 2.5,0 2.5,-2.5 0,-1.25 -2.5,-1.25 -2.5,0 -2.5,2.5 z M 133.125,25 q -1.25,0 -1.25,2.5 0,2.5 2.5,2.5 1.25,-1.25 1.25,-2.5 0,-2.5 -2.5,-2.5 z m 37.5,237.5 q 1.25,0 1.25,-2.5 0,-1.25 -1.25,-1.25 -2.5,-1.25 -2.5,2.5 0,1.25 2.5,1.25 z m -67.5,41.25 q 0,2.5 1.25,2.5 2.5,0 2.5,-1.25 0,-2.5 -1.25,-2.5 -2.5,-2.5 -2.5,1.25 z m 20,43.75 q 0,1.25 2.5,1.25 2.5,0 2.5,-3.75 -1.25,-1.25 -2.5,-1.25 -2.5,1.25 -2.5,3.75 z m 1.25,-313.75 q 1.25,0 1.25,-1.25 0,-2.5 -1.25,-2.5 -1.25,0 -1.25,1.25 0,0 -1.25,0 0,2.5 2.5,2.5 z m 105,271.25 q 1.25,0 1.25,-1.25 0,-2.5 -1.25,-2.5 -1.25,0 -1.25,1.25 0,0 -1.25,0 0,2.5 2.5,2.5 z M 39.374999,52.5 l 1.25,1.25 q 2.5,0 2.5,-1.25 v -1.25 l -1.25,-1.25 q -2.5,0 -2.5,2.5 z M 163.125,121.25 q 0,1.25 2.5,1.25 1.25,0 1.25,-2.5 0,-3.75 -2.5,-1.25 -1.25,0 -1.25,2.5 z m -66.250001,132.5 q 2.5,2.5 3.750001,1.25 1.25,0 1.25,-2.5 0,-3.75 -2.500001,-1.25 -2.5,0 -2.5,2.5 z m 57.500001,37.5 q 0,-2.5 -2.5,-2.5 -2.5,0 -2.5,2.5 1.25,1.25 2.5,1.25 2.5,0 2.5,-1.25 z m 143.75,60 q 1.25,0 1.25,-2.5 0,-2.5 -3.75,-2.5 0,1.25 -1.25,1.25 0,0 0,1.25 0,2.5 3.75,2.5 z M 98.124999,110 q 0,1.25 1.25,1.25 L 100.625,110 q 0,-2.5 -1.250001,-2.5 -1.25,0 -1.25,2.5 z M 255.625,457.5 q 0,1.25 2.5,1.25 1.25,1.25 1.25,-1.25 2.5,-2.5 -1.25,-2.5 -2.5,0 -2.5,2.5 z M 30.624999,46.25 q 2.5,-2.5 -1.25,-2.5 -2.5,0 -2.5,2.5 0,1.25 1.25,2.5 2.5,0 2.5,-2.5 z M 198.125,33.75 q 1.25,0 1.25,-2.5 0,-3.75 -2.5,-1.25 -2.5,0 -2.5,2.5 0,1.25 3.75,1.25 z m -7.5,132.5 q 1.25,-1.25 2.5,-1.25 -1.25,-3.75 -2.5,-2.5 l -2.5,1.25 q 0,2.5 2.5,2.5 z m 93.75,217.5 q 1.25,0 1.25,-2.5 0,-2.5 -2.5,-2.5 -1.25,1.25 -1.25,2.5 0,2.5 2.5,2.5 z M 101.875,272.5 q 1.25,0 1.25,-2.5 0,-1.25 -2.5,-1.25 -2.500001,0 -2.500001,1.25 0,5 3.750001,2.5 z m -56.250001,-40 q 0,-2.5 -2.5,-2.5 -1.25,0 -1.25,2.5 0,1.25 1.25,1.25 2.5,2.5 2.5,-1.25 z M 249.375,397.5 q 0,2.5 2.5,2.5 2.5,0 2.5,-3.75 0,-1.25 -2.5,-1.25 -2.5,0 -2.5,2.5 z m -45,-237.5 q 0,-1.25 -1.25,-1.25 -3.75,0 -1.25,2.5 0,1.25 1.25,1.25 1.25,0 1.25,-2.5 z m -76.25,-7.5 q 0,1.25 1.25,1.25 l 1.25,-1.25 v -1.25 l -1.25,-1.25 -1.25,1.25 z M 151.875,85 q 1.25,0 1.25,-1.25 0,-2.5 -2.5,-2.5 -1.25,1.25 -1.25,2.5 0,1.25 2.5,1.25 z m 62.5,375 1.25,-1.25 q 0,-2.5 -1.25,-2.5 -2.5,0 -2.5,2.5 0,3.75 2.5,1.25 z m 177.5,-128.75 q 2.5,2.5 2.5,-1.25 0,-2.5 -2.5,-2.5 l -1.25,1.25 V 330 q 0,1.25 1.25,1.25 z m -356.250001,100 q 0,2.5 2.5,2.5 l 1.25,-1.25 q 0,-2.5 -2.5,-2.5 z M 189.375,262.5 q 2.5,0 2.5,-2.5 0,-2.5 -2.5,-2.5 l -2.5,2.5 q 0,2.5 2.5,2.5 z M 143.125,140 q -1.25,-1.25 -2.5,-1.25 0,1.25 -1.25,1.25 0,0 0,1.25 l 1.25,1.25 q 2.5,0 2.5,-2.5 z m 121.25,235 q 1.25,0 1.25,-2.5 0,-1.25 -2.5,-1.25 -1.25,1.25 -1.25,2.5 0,1.25 2.5,1.25 z m 73.75,-235 q 1.25,0 1.25,-2.5 0,-2.5 -1.25,-2.5 l -2.5,2.5 q 0,2.5 2.5,2.5 z m -260.000001,337.5 1.25,-1.25 q 0,-2.5 -1.25,-2.5 -1.25,0 -1.25,1.25 -2.5,2.5 1.25,2.5 z m -12.5,-337.5 q 2.5,0 2.5,-2.5 0,-2.5 -2.5,-2.5 -1.25,0 -1.25,2.5 0,1.25 1.25,2.5 z m -42.5,233.75 q 0,-1.25 -2.5,-1.25 -2.5,0 -1.25,1.25 0,2.5 1.25,2.5 2.5,0 2.5,-2.5 z M 275.625,377.5 q 2.5,0 2.5,-1.25 0,-2.5 -1.25,-2.5 -2.5,0 -2.5,2.5 z m 47.5,-248.75 1.25,-1.25 q -1.25,-1.25 -2.5,-1.25 l -1.25,1.25 q 0,3.75 2.5,1.25 z m -7.5,141.25 2.5,-2.5 -2.5,-2.5 q -1.25,0 -1.25,2.5 -1.25,0 1.25,2.5 z M 23.124999,476.25 q 2.5,0 2.5,-2.5 -1.25,-1.25 -2.5,-1.25 l -1.25,1.25 q 0,2.5 1.25,2.5 z m 145.000001,-410 1.25,1.25 q 2.5,0 2.5,-1.25 L 170.625,65 Z m 77.5,-2.5 q 0,2.5 1.25,2.5 l 1.25,-1.25 q 2.5,-2.5 -1.25,-2.5 z M 60.624999,237.5 q -1.25,0 -2.5,1.25 l 1.25,1.25 q 1.25,0 1.25,-1.25 z M 313.125,225 q 1.25,0 1.25,-1.25 v -1.25 l -1.25,1.25 z m 62.5,-50 v 2.5 l 2.5,-1.25 q 0,-1.25 -1.25,-2.5 z m -255,-10 -1.25,-1.25 V 165 Z M 21.874999,103.75 V 105 h 1.25 v -2.5 z M 121.875,185 h 1.25 v 1.25 z m 195,126.25 -1.25,1.25 z m -53.75,40 1.25,-1.25 z m 1.25,-1.25 -1.25,1.25 z M 36.874999,117.5 l 1.25,-1.25 z M 464.375,0 V 500 H -1.875001 V 0 Z M 5.624999,7.5 v 485 H 458.125 V 7.5 Z"
     style="font-style:normal;font-variant:normal;font-weight:normal;font-stretch:normal;font-size:medium;line-height:1.25;font-family:'Euclid Initials';-inkscape-font-specification:'Euclid Initials';letter-spacing:0px;word-spacing:0px;fill:#ffffff;fill-opacity:1;stroke:none;stroke-width:9.375"
     id="path979" />
</svg>
