<?xml version="1.0" encoding="iso-8859-1"?><!-- Generator: Adobe Illustrator 21.0.0, SVG Export Plug-In . SVG Version: 6.00 Build 0)  --><svg xmlns="http://www.w3.org/2000/svg" xmlns:xlink="http://www.w3.org/1999/xlink" viewBox="0 0 50 50" width="100px" height="100px"><path style="fill:none;stroke:#000000;stroke-width:2;stroke-miterlimit:10;" d="M12,19.947V13c0,0,3.615,5.423,8.698,5.528"/><path style="fill:none;stroke:#000000;stroke-width:2;stroke-miterlimit:10;" d="M27.428,17.983c5.214-0.923,10.479-4.089,12.294-8.751c1.465-3.763,1.748-2.036,2.015,0c0.409,3.114,1.008,17.464-4.031,23.628s-13.244,6.458-22.028,2.613C13.537,34.536,11.258,33.013,10,32"/><circle style="fill:none;stroke:#000000;stroke-width:2;stroke-miterlimit:10;" cx="24.5" cy="22.5" r="5.5"/><path style="fill:none;stroke:#000000;stroke-width:2;stroke-miterlimit:10;" d="M11.112,23.503C11.039,23.18,11,22.845,11,22.5c0-2.485,2.015-4.5,4.5-4.5c1.699,0,3.178,0.941,3.944,2.331"/><path style="fill:none;stroke:#000000;stroke-width:2;stroke-miterlimit:10;" d="M19.259,24.975C18.454,26.195,17.071,27,15.5,27c-0.98,0-1.886-0.313-2.625-0.844c-0.012-0.008-0.17-0.124-0.17-0.124"/><path style="fill:none;stroke:#000000;stroke-width:2;stroke-miterlimit:10;" d="M11.587,24.111c-1.924-2.735-5.089-3.883-7.07-2.564s-2.028,4.606-0.104,7.342c1.924,2.735,5.089,3.883,7.07,2.564C13.464,30.133,13.511,26.846,11.587,24.111z"/><ellipse cx="6" cy="24.5" rx="2" ry="2.5"/><path d="M20,32c0,0,11.866,0.655,11.866-1.659C31.866,29.191,31,28,31,28s3.474,1.578,2.947,3.679c-0.081,0.322-0.245,0.657-0.515,1.003C30.835,35.997,20,32,20,32z"/><path style="fill:none;stroke:#000000;stroke-width:2;stroke-miterlimit:10;" d="M49,44c0,0-4.191-1.157-4.805-3.148c-0.971-3.148,1.902-5.071,3.843-2.973C49.009,38.929,49,44,49,44z"/><path d="M44.027,39.577c-1.882-0.205-4.813-1.111-7.954-2.543c-3.609-1.646-7.674-4.888-7.674-4.888l4.291-1.148c1.55,0.443,3.356,1.112,5.237,1.97c3.234,1.474,5.902,3.146,7.257,4.45L44.027,39.577z"/><path d="M26,21c-0.086,0-0.166,0.018-0.25,0.025C26.459,21.145,27,21.757,27,22.5c0,0.828-0.672,1.5-1.5,1.5S24,23.328,24,22.5c0-0.406,0.163-0.773,0.425-1.043C23.572,21.986,23,22.923,23,24c0,1.657,1.343,3,3,3s3-1.343,3-3S27.657,21,26,21z"/><path d="M16.5,21c-0.071,0-0.138,0.015-0.208,0.021c0.591,0.1,1.042,0.61,1.042,1.229c0,0.69-0.56,1.25-1.25,1.25c-0.69,0-1.25-0.56-1.25-1.25c0-0.338,0.136-0.644,0.354-0.869C14.477,21.822,14,22.602,14,23.5c0,1.381,1.119,2.5,2.5,2.5s2.5-1.119,2.5-2.5S17.881,21,16.5,21z"/></svg>