<?xml version="1.0" encoding="UTF-8" standalone="no"?>
<!-- Created with Inkscape (http://www.inkscape.org/) -->

<svg
   version="1.1"
   id="svg2"
   width="768"
   height="768"
   viewBox="0 0 768 768"
   xmlns="http://www.w3.org/2000/svg"
   xmlns:svg="http://www.w3.org/2000/svg">
  <defs
     id="defs6" />
  <g
     id="g8">
    <path
       style="fill:#ffffff"
       d="m 379.06622,677.82515 c -8.49491,-1.42202 -18.26993,-5.97322 -24.4122,-11.3662 -3.23795,-2.84296 -3.30622,-3.06149 -2.40085,-7.68456 1.91018,-9.75383 -0.9404,-18.61845 -7.51968,-23.38446 -5.67387,-4.11013 -11.33604,-5.51475 -31.80521,-7.88994 -26.02085,-3.01939 -35.07756,-6.46882 -38.50181,-14.66421 -2.74188,-6.56224 -0.18478,-11.30248 14.28891,-26.48817 10.1482,-10.64742 12.57067,-14.43828 12.71377,-19.89544 0.28695,-10.94365 -13.17207,-18.01241 -70.36293,-36.95503 -50.47504,-16.71823 -66.29132,-23.45088 -71.92968,-30.61889 -5.76398,-7.32771 -1.05973,-12.52377 20.86329,-23.04446 25.57656,-12.27399 28.12765,-13.65152 32.69185,-17.65278 3.19745,-2.80308 4.37454,-4.58306 4.37454,-6.61514 0,-8.31901 -9.70504,-12.59525 -64.49999,-28.42004 -49.36156,-14.25563 -67.668153,-21.56587 -71.885713,-28.70564 -1.43287,-2.42565 -1.51697,-3.77366 -0.59535,-9.54276 1.50439,-9.4171 4.44544,-17.72175 9.16579,-25.88143 3.49152,-6.03552 21.290683,-24.22674 129.182363,-132.02793 93.88697,-93.8082 126.54756,-125.85016 130.7983,-128.320776 10.49365,-6.09916 18.97668,-8.44079 32.36731,-8.93456 14.35536,-0.52935 20.87513,0.81531 33.4673,6.90242 l 8.5,4.108926 123.5,123.13596 c 67.925,67.72478 125.075,125.03699 127,127.36047 4.92174,5.94054 9.46601,15.17026 12.14176,24.66067 1.86213,6.60466 2.29203,10.62715 2.31011,21.61482 0.026,15.78393 -0.93018,19.39385 -6.83284,25.79747 -16.34716,17.73458 -61.33509,34.69773 -139.79134,52.70973 -15.47629,3.55305 -20.49758,5.69176 -28.50168,12.13966 -5.51814,4.44529 -7.07485,8.97283 -4.76139,13.84808 2.27073,4.78519 7.46369,9.07832 22.75254,18.80997 14.4875,9.22158 24.72912,17.08237 28.98836,22.24957 l 2.89399,3.51091 -3.84975,4.21731 c -10.96963,12.01692 -27.17879,24.24738 -43.10922,32.52761 -4.2573,2.21284 -15.61554,7.24086 -25.24054,11.17339 -9.625,3.93252 -20.77026,8.77866 -24.76723,10.76918 -8.44211,4.20424 -16.92472,11.5644 -17.81118,15.45435 -0.81545,3.57832 2.61739,6.77107 12.13776,11.28888 7.92954,3.76289 13.01731,7.5947 13.93873,10.49783 1.03893,3.27337 -2.35222,7.95429 -8.80359,12.1519 -15.04598,9.78973 -39.10552,19.33332 -56.19449,22.2904 -8.24649,1.42698 -24.42413,1.88998 -30.50001,0.87291 z m 6.53571,-193.91963 -0.63404,-4.2281 -7.70084,-0.61192 c -15.49733,-1.23145 -34.3633,-4.88484 -63.20083,-12.23882 -16.225,-4.1376 -30.61468,-7.77216 -31.97706,-8.07678 -2.30105,-0.51451 -2.18461,-0.20497 1.63866,4.35612 6.27861,7.49024 7.40975,8.25826 16.95987,11.51539 16.70123,5.69605 57.10548,14.7249 78.87853,17.62641 5.87005,0.78225 6.00726,0.74636 6.33488,-1.65732 0.18418,-1.35129 0.0496,-4.35953 -0.29917,-6.68498 z m 12.71897,-225.68728 26.75466,-18.54571 18.19857,8.38516 c 10.00922,4.61184 18.31204,8.27171 18.45071,8.13303 0.13868,-0.13868 1.61006,-10.98506 3.26974,-24.10307 1.65968,-13.11801 3.14243,-23.97576 3.295,-24.12833 0.15257,-0.15257 15.27553,6.88527 33.60659,15.63964 18.33105,8.75437 33.46029,15.91704 33.62052,15.91704 0.16023,0 -0.10243,-2.1375 -0.58369,-4.75 -1.13267,-6.14869 -5.20411,-11.92534 -11.29074,-16.01957 -4.67846,-3.14701 -38.88208,-28.34837 -100.07603,-73.73638 -15.95,-11.83024 -30.94199,-22.46046 -33.31554,-23.62272 -5.66226,-2.77265 -12.34274,-2.16549 -19.98235,1.81611 -3.13616,1.6345 -14.92712,9.6417 -26.20212,17.79378 -11.275,8.15207 -25.84978,18.432 -32.3884,22.84429 -17.4706,11.78925 -37.70781,32.47574 -55.92201,57.16355 -11.75641,15.93482 -11.76522,15.96017 -12.78269,36.7647 -0.48688,9.95567 -0.73916,18.24731 -0.56061,18.42586 0.32429,0.3243 75.20843,-6.64346 77.21268,-7.18442 0.58243,-0.1572 7.08927,-14.73293 14.45964,-32.39051 7.37036,-17.65758 13.66792,-32.10469 13.99457,-32.10469 0.32665,0 5.27437,16.43782 10.99493,36.52849 6.08762,21.37977 10.83457,36.36073 11.44646,36.12398 0.57498,-0.22249 13.08504,-8.75009 27.80011,-18.95023 z m 166.65261,354.97012 c -11.60975,-6.13151 -14.42938,-24.0836 -5.22789,-33.28508 3.30289,-3.3029 3.93613,-3.54556 7.70954,-2.95436 5.87312,0.92018 15.67827,5.72956 20.42602,10.01886 4.65333,4.20401 8.18505,10.77511 8.18505,15.22909 0,10.27003 -19.44396,17.1436 -31.09272,10.99149 z M 221.39262,610.4929 c -18.7653,-3.80611 -21.04407,-19.95164 -4.91147,-34.79858 9.26897,-8.53029 21.03046,-11.35633 32.67614,-7.85138 5.02074,1.51107 18.46155,8.0727 21.99384,10.73711 2.31335,1.74496 2.32678,1.84942 0.68124,5.30015 -1.88068,3.94383 -8.22699,9.30557 -20.63777,17.43602 -12.67653,8.30455 -21.18488,10.92446 -29.80198,9.17668 z m 389.17361,-47.84692 c -10.2779,-1.88073 -26.37851,-6.21672 -32.35188,-8.71256 -3.19948,-1.33683 -3.33652,-1.59962 -2.67447,-5.12867 2.15322,-11.47766 10.42259,-16.61067 32.93629,-20.4444 14.43323,-2.45775 33.05915,-2.18968 40.72347,0.58612 17.9585,6.50403 19.47845,25.27359 2.63967,32.59659 -7.36629,3.20352 -26.93582,3.72647 -41.27308,1.10292 z"
       id="path12" />
  </g>
</svg>
