<?xml version="1.0" encoding="UTF-8" standalone="no"?>
<!-- Created with Inkscape (http://www.inkscape.org/) -->

<svg
   version="1.1"
   id="svg2"
   width="840"
   height="840"
   viewBox="0 0 840 840"
   sodipodi:docname="javascript.png"
   inkscape:version="1.1.2 (0a00cf5339, 2022-02-04)"
   xmlns:inkscape="http://www.inkscape.org/namespaces/inkscape"
   xmlns:sodipodi="http://sodipodi.sourceforge.net/DTD/sodipodi-0.dtd"
   xmlns="http://www.w3.org/2000/svg"
   xmlns:svg="http://www.w3.org/2000/svg">
  <defs
     id="defs6" />
  <sodipodi:namedview
     id="namedview4"
     pagecolor="#505050"
     bordercolor="#eeeeee"
     borderopacity="1"
     inkscape:pageshadow="0"
     inkscape:pageopacity="0"
     inkscape:pagecheckerboard="0"
     showgrid="false"
     inkscape:zoom="0.96190476"
     inkscape:cx="140.34653"
     inkscape:cy="420"
     inkscape:window-width="1920"
     inkscape:window-height="990"
     inkscape:window-x="0"
     inkscape:window-y="0"
     inkscape:window-maximized="1"
     inkscape:current-layer="g8" />
  <g
     inkscape:groupmode="layer"
     inkscape:label="Image"
     id="g8">
    <path
       style="fill:#ffffff"
       d="M 123.5,740.61828 C 111.53445,737.69821 101.31084,729.09922 95.68498,717.22333 L 92.5,710.5 92.231398,420 c -0.177123,-191.56296 0.07316,-292.11049 0.734885,-295.22874 1.664969,-7.84585 5.115555,-13.95106 11.484737,-20.32024 6.36918,-6.369182 12.47439,-9.819768 20.32024,-11.484737 C 127.88951,92.304558 228.43704,92.054275 420,92.231398 L 710.5,92.5 l 6.72333,3.18498 c 12.55451,5.94733 21.30175,16.93654 23.7323,29.81502 0.83106,4.40341 1.05415,82.90218 0.83838,295 L 741.5,709.5 739.23564,715 C 734.59276,726.27727 726.27727,734.59276 715,739.23564 L 709.5,741.5 419,741.66924 c -225.69599,0.13149 -291.61539,-0.10296 -295.5,-1.05096 z M 707.6,707.6 711,704.2 V 417.64705 C 711,197.61059 710.72268,130.48546 709.80531,128.47206 707.13094,122.60244 728.46759,123 416.12658,123 H 129.15385 l -3.07693,3.07692 L 123,129.15385 v 286.87602 c 0,202.62794 0.31599,287.56955 1.07599,289.23757 0.5918,1.29885 2.2793,3.10805 3.75,4.02044 2.47424,1.53497 24.10412,1.66089 289.52401,1.68551 L 704.2,711 Z M 343.81396,678.99376 c -33.14686,-5.28069 -61.22575,-25.18636 -79.1832,-56.13453 l -2.69278,-4.64077 24.11959,-14.60923 C 299.32335,595.57415 310.31539,589 310.48434,589 c 0.16894,0 1.73861,2.2307 3.48815,4.95712 3.81879,5.95108 14.65052,16.30095 19.8102,18.92892 10.01297,5.0999 23.96533,6.56583 34.0338,3.57582 6.85936,-2.03702 12.23463,-7.29655 15.29108,-14.96186 L 385.5,595.5 385.78078,490.75 386.06156,386 H 417.03078 448 v 105.27623 c 0,66.15161 -0.38317,108.42541 -1.03104,113.75 -5.77942,47.49882 -34.46173,73.09139 -83.46896,74.47743 -7.7,0.21777 -16.55872,-0.0117 -19.68604,-0.5099 z M 563.5,678.92541 c -36.14057,-4.97124 -66.81862,-26.07269 -82.37027,-56.65719 l -2.15179,-4.23178 22.49477,-15.01822 C 513.84483,594.7582 524.34987,588 524.81725,588 c 0.46737,0 3.25476,3.7125 6.19419,8.25 15.26537,23.56465 34.70951,33.94745 57.6862,30.80333 C 607.22115,624.51858 618,614.03578 618,598.55577 c 0,-8.49846 -2.49961,-15.05327 -7.80742,-20.47364 -6.32495,-6.45909 -13.01953,-10.15619 -40.4477,-22.33734 -12.82844,-5.69725 -27.06411,-12.58302 -31.63481,-15.30171 -29.51748,-17.55725 -43.59373,-39.05059 -45.71603,-69.80484 -2.25927,-32.73919 13.42413,-60.548 42.10596,-74.65964 12.29582,-6.04962 23.44791,-8.8381 38.58428,-9.64768 32.31156,-1.72819 59.26934,8.28134 76.49581,28.40322 5.62501,6.57045 12.65985,17.04802 12.25472,18.25195 C 661.45903,434.10282 618.37479,462 617.0259,462 c -0.47453,0 -1.89504,-1.6875 -3.15669,-3.75 -3.72634,-6.0917 -12.02025,-14.29285 -17.01332,-16.82302 -8.70528,-4.41131 -21.93424,-5.06108 -31.12033,-1.52857 -14.24845,5.47925 -19.70992,23.42518 -11.35505,37.31174 4.54865,7.56029 13.48513,13.15429 38.11949,23.86178 37.39378,16.25346 50.82086,24.14341 64.5,37.90115 9.64452,9.69993 14.96276,18.09552 18.47311,29.16241 4.93163,15.54768 5.71234,35.85028 1.95592,50.86451 -2.26364,9.0477 -8.38973,21.39055 -14.13329,28.47577 -11.81756,14.57809 -31.41348,25.418 -54.3243,30.05067 -9.24645,1.86968 -36.05361,2.69442 -45.47144,1.39897 z"
       id="path12" />
  </g>
</svg>
