<?xml version="1.0" encoding="UTF-8" standalone="no"?>
<!-- Created with Inkscape (http://www.inkscape.org/) -->

<svg
   version="1.1"
   id="svg2"
   width="476.74866"
   height="665.61041"
   viewBox="0 0 476.74866 665.61041"
   sodipodi:docname="kodi.svg"
   inkscape:version="1.1.2 (0a00cf5339, 2022-02-04)"
   xmlns:inkscape="http://www.inkscape.org/namespaces/inkscape"
   xmlns:sodipodi="http://sodipodi.sourceforge.net/DTD/sodipodi-0.dtd"
   xmlns="http://www.w3.org/2000/svg"
   xmlns:svg="http://www.w3.org/2000/svg">
  <defs
     id="defs6" />
  <sodipodi:namedview
     id="namedview4"
     pagecolor="#505050"
     bordercolor="#eeeeee"
     borderopacity="1"
     inkscape:pageshadow="0"
     inkscape:pageopacity="0"
     inkscape:pagecheckerboard="0"
     showgrid="false"
     inkscape:zoom="0.24240001"
     inkscape:cx="-561.05608"
     inkscape:cy="577.55773"
     inkscape:window-width="1920"
     inkscape:window-height="990"
     inkscape:window-x="0"
     inkscape:window-y="0"
     inkscape:window-maximized="1"
     inkscape:current-layer="g8" />
  <g
     inkscape:groupmode="layer"
     inkscape:label="Image"
     id="g8"
     transform="translate(-178.29232,-83.861446)">
    <path
       style="fill:#ffffff;stroke-width:1.47655"
       d="m 351.77647,748.05131 c -19.5008,-3.71872 -39.29593,-19.14943 -48.02267,-37.43466 -9.69677,-20.31778 -9.48561,-45.96819 0.54553,-66.26483 24.51851,-49.60981 97.51532,-51.7855 125.37928,-3.73695 12.11335,20.88822 12.07982,51.7374 -0.0806,74.2059 -4.81786,8.90183 -19.76736,23.03633 -28.90989,27.33382 -14.70055,6.91008 -32.40482,9.04448 -48.91159,5.89672 z m 39.85191,-21.93881 c 18.31441,-9.03504 27.75491,-25.23054 27.94389,-47.93871 0.14751,-17.72917 -2.88151,-26.27429 -13.30437,-37.53225 -11.45167,-12.36915 -19.37422,-15.59915 -38.2954,-15.61288 -13.76642,-0.01 -15.48561,0.32846 -24.69363,4.86156 -10.94553,5.38846 -18.15104,12.9518 -23.60418,24.77636 -2.83957,6.15728 -3.35048,9.74189 -3.35048,23.50721 0,15.06756 0.31592,16.86619 4.36886,24.87264 5.31058,10.49094 15.98878,20.42979 26.34638,24.52217 11.26041,4.44911 34.13289,3.70218 44.58893,-1.4561 z M 179.74311,678.17379 v -70.13623 h 8.83211 8.8321 l 0.39634,34.32204 0.39636,34.32205 36.46745,-34.38065 36.46743,-34.38067 12.89119,0.42775 12.89117,0.42774 -28.68688,27.25084 c -15.77779,14.98794 -28.87477,27.67778 -29.1044,28.19959 -0.22962,0.52183 13.24441,19.02248 29.94231,41.11257 16.69788,22.09011 29.9694,40.79546 29.49227,41.56751 -0.47715,0.77203 -5.32475,1.4037 -10.77244,1.4037 h -9.9049 l -25.07607,-33.4711 c -13.79184,-18.40909 -25.81352,-34.46785 -26.71482,-35.68614 -1.36828,-1.84948 -3.86621,-0.0678 -15.13467,10.79503 l -13.49592,13.01011 v 22.67605 22.67605 h -8.85932 -8.85931 z m 281.65238,69.27936 c -0.60908,-0.61152 -1.10742,-32.13525 -1.10742,-70.05273 v -68.94088 l 11.81883,-0.81009 c 19.46381,-1.33408 58.91701,0.36855 67.17672,2.89907 21.24765,6.50959 38.79242,26.30264 43.73227,49.33633 2.49711,11.64365 0.91053,35.65838 -3.0367,45.96399 -6.65228,17.36807 -20.47572,31.12149 -38.55481,38.35956 -7.31267,2.92767 -11.28064,3.27343 -43.48422,3.78912 -19.49049,0.31211 -35.9356,0.0672 -36.54467,-0.54437 z m 77.54837,-21.93292 c 35.72037,-16.89843 36.11178,-76.76398 0.62579,-95.71255 -5.64047,-3.01188 -8.59337,-3.35014 -33.13931,-3.79626 l -26.94709,-0.48977 v 52.74892 52.7489 l 25.53901,-0.76681 c 23.8068,-0.71482 26.10758,-1.03581 33.9216,-4.73243 z m 68.57169,21.86985 c -0.57684,-0.57683 -1.04879,-32.16712 -1.04879,-70.20066 v -69.15186 h 9.61205 9.61205 l -0.3836,69.7671 -0.3836,69.76709 -8.17965,0.43357 c -4.49882,0.23846 -8.65163,-0.0384 -9.22846,-0.61524 z m 31.65659,-132.95414 c -0.12166,-2.57165 -1.05179,-5.01088 -2.06692,-5.42049 -1.01512,-0.40961 0.14766,-0.78704 2.58398,-0.83871 2.43631,-0.0517 3.65904,0.39636 2.71719,0.99563 -0.94185,0.59929 -2.00507,3.0808 -2.36273,5.51447 l -0.65028,4.42486 z m 5.85968,-1.17772 c -0.16417,-5.50082 -0.024,-5.70279 2.32636,-3.35243 2.31644,2.31644 2.6979,2.32291 5.16794,0.0876 2.53036,-2.28995 2.65555,-2.11836 2.44564,3.35242 -0.17644,4.5983 -0.3476,4.92502 -0.84524,1.61337 -0.49178,-3.27267 -1.04277,-3.80498 -2.60042,-2.51226 -1.46827,1.21857 -2.28687,1.14733 -3.18397,-0.2771 -0.83653,-1.32827 -1.50377,-0.55636 -2.17158,2.51227 -0.9064,4.16486 -0.97447,4.07975 -1.13873,-1.42383 z M 393.6771,528.58603 c -2.75099,-2.28106 -21.12,-20.41015 -40.82,-40.28689 -36.62123,-36.94977 -39.43744,-40.65814 -37.16719,-48.94131 1.21795,-4.44378 71.37351,-77.54869 79.06586,-82.38984 2.72781,-1.71672 7.19312,-2.89745 10.95759,-2.89745 6.33604,0 6.46109,0.10686 45.08492,38.55327 21.30219,21.2043 39.88698,40.69928 41.2995,43.32218 1.89003,3.50956 2.2894,6.29349 1.51235,10.5421 -0.92934,5.08109 -5.87314,10.5967 -41.23949,46.00924 l -40.1836,40.23605 H 405.433 c -5.2308,0 -7.88213,-0.93537 -11.7559,-4.14735 z M 528.94776,395.43307 c -5.60833,-3.65178 -76.38544,-76.34195 -78.88359,-81.01579 -1.16037,-2.17096 -1.48234,-5.49987 -0.85683,-8.85932 0.84735,-4.55103 7.06561,-11.47446 40.29114,-44.86026 26.89392,-27.02363 40.82838,-39.98666 44.16802,-41.08884 9.26545,-3.05788 12.26694,-0.77089 53.92572,41.08884 33.22553,33.3858 39.44379,40.30923 40.29114,44.86026 0.62126,3.33664 0.30328,6.70311 -0.83679,8.85932 -2.14507,4.05696 -72.08967,75.71619 -78.69837,80.62759 -5.54932,4.12409 -13.42102,4.28158 -19.40044,0.3882 z M 216.31398,353.75228 c -36.88476,-37.67629 -37.9958,-38.98401 -38.02123,-44.75204 -0.0256,-5.78457 0.97451,-6.96749 37.82599,-44.74447 32.34669,-33.15909 38.4052,-38.73768 41.65458,-38.35493 3.12576,0.36821 4.02016,1.49894 5.02598,6.35412 0.67295,3.24842 1.03129,39.52555 0.79629,80.61582 -0.44843,78.41073 -0.54316,79.50676 -6.8834,79.641 -1.32175,0.0279 -19.50094,-17.41379 -40.39821,-38.7595 z m 103.99692,-8.83637 c -1.33972,-1.33972 -1.77186,-23.92965 -1.77186,-92.62261 V 161.44256 L 357.32959,122.652 396.12014,83.861446 h 7.28759 7.28759 l 38.93176,38.759504 c 21.41247,21.31773 39.87977,40.55374 41.03844,42.74669 2.52171,4.77265 2.70523,10.52671 0.47639,14.93592 -2.59049,5.12458 -164.21964,166.38421 -166.76549,166.38421 -1.26151,0 -3.091,-0.79734 -4.06552,-1.77186 z"
       id="path30" />
  </g>
</svg>
