<?xml version="1.0" encoding="UTF-8" standalone="no"?>
<svg
   xmlns:dc="http://purl.org/dc/elements/1.1/"
   xmlns:cc="http://creativecommons.org/ns#"
   xmlns:rdf="http://www.w3.org/1999/02/22-rdf-syntax-ns#"
   xmlns:svg="http://www.w3.org/2000/svg"
   xmlns="http://www.w3.org/2000/svg"
   xmlns:sodipodi="http://sodipodi.sourceforge.net/DTD/sodipodi-0.dtd"
   xmlns:inkscape="http://www.inkscape.org/namespaces/inkscape"
   viewBox="0 0 18 18"
   width="18"
   height="18"
   version="1.1"
   id="svg4"
   sodipodi:docname="linkedin.svg"
   style="fill:#000000"
   inkscape:version="0.92.4 (5da689c313, 2019-01-14)">
  <metadata
     id="metadata10">
    <rdf:RDF>
      <cc:Work
         rdf:about="">
        <dc:format>image/svg+xml</dc:format>
        <dc:type
           rdf:resource="http://purl.org/dc/dcmitype/StillImage" />
      </cc:Work>
    </rdf:RDF>
  </metadata>
  <defs
     id="defs8" />
  <sodipodi:namedview
     pagecolor="#ffffff"
     bordercolor="#666666"
     borderopacity="1"
     objecttolerance="10"
     gridtolerance="10"
     guidetolerance="10"
     inkscape:pageopacity="0"
     inkscape:pageshadow="2"
     inkscape:window-width="1280"
     inkscape:window-height="963"
     id="namedview6"
     showgrid="false"
     inkscape:zoom="27.812867"
     inkscape:cx="7.9639684"
     inkscape:cy="10.186771"
     inkscape:window-x="0"
     inkscape:window-y="0"
     inkscape:window-maximized="1"
     inkscape:current-layer="svg4" />
  <path
     d="M 18,0 H 0 V 18 H 18 Z M 6,14 H 3.477 V 7 H 6 Z M 4.694,5.717 c -0.771,0 -1.286,-0.514 -1.286,-1.2 0,-0.686 0.514,-1.2 1.371,-1.2 0.771,0 1.286,0.514 1.286,1.2 0,0.686 -0.514,1.2 -1.371,1.2 z M 15,14 h -2.442 v -3.826 c 0,-1.058 -0.651,-1.302 -0.895,-1.302 -0.244,0 -1.058,0.163 -1.058,1.302 0,0.163 0,3.826 0,3.826 H 8.082 V 7 h 2.523 V 7.977 C 10.93,7.407 11.581,7 12.802,7 14.023,7 15,7.977 15,10.174 Z"
     id="path2"
     inkscape:connector-curvature="0" />
</svg>
