<?xml version="1.0" encoding="UTF-8" standalone="no"?>
<!-- Uploaded to: SVG Repo, www.svgrepo.com, Generator: SVG Repo Mixer Tools -->

<svg
   width="800px"
   height="800px"
   viewBox="-10 -5 1034 1034"
   version="1.1"
   id="svg4"
   sodipodi:docname="opml.svg"
   inkscape:version="1.1.2 (0a00cf5339, 2022-02-04)"
   xmlns:inkscape="http://www.inkscape.org/namespaces/inkscape"
   xmlns:sodipodi="http://sodipodi.sourceforge.net/DTD/sodipodi-0.dtd"
   xmlns="http://www.w3.org/2000/svg"
   xmlns:svg="http://www.w3.org/2000/svg">
  <defs
     id="defs8" />
  <sodipodi:namedview
     id="namedview6"
     pagecolor="#505050"
     bordercolor="#eeeeee"
     borderopacity="1"
     inkscape:pageshadow="0"
     inkscape:pageopacity="0"
     inkscape:pagecheckerboard="0"
     showgrid="false"
     inkscape:zoom="0.2525"
     inkscape:cx="-649.50495"
     inkscape:cy="364.35644"
     inkscape:window-width="1920"
     inkscape:window-height="990"
     inkscape:window-x="0"
     inkscape:window-y="0"
     inkscape:window-maximized="1"
     inkscape:current-layer="svg4" />
  <path
     fill="#000000"
     d="m 255.38013,72.489327 q -51.64249,0 -94.49478,25.271864 -42.85229,25.271859 -68.124165,68.673539 -25.27186,43.40168 -25.27186,93.94541 v 504.33849 q 0,50.54373 25.27186,93.94541 25.271875,43.40168 68.124165,68.12415 42.85229,24.72248 94.49478,24.72248 h 503.23972 q 51.64251,0 94.4948,-24.72248 42.85229,-24.72247 68.12415,-68.12415 25.27187,-43.40168 25.27187,-93.94541 V 260.38014 q 0,-50.54373 -25.27187,-93.94541 Q 895.96694,123.03305 853.11465,97.761191 810.26237,72.489327 758.61986,72.489327 Z M 509.19755,193.35476 q 85.70458,0 160.42139,43.95107 72.51926,42.85229 114.27278,114.27277 43.95106,74.71682 43.95106,161.52017 0,86.80336 -43.95106,160.4214 -41.75352,72.51926 -114.27278,115.37155 -74.71681,43.95107 -160.97078,43.95107 -86.25397,0 -160.97079,-43.95107 -72.51926,-42.85229 -114.27277,-115.37155 -43.95106,-73.61804 -43.95106,-160.4214 0,-86.80335 43.95106,-161.52017 41.75351,-71.42048 114.27277,-114.27277 74.71682,-43.95107 161.52018,-43.95107 z m 0,96.69235 q -61.5315,0 -112.62461,30.21636 -51.09312,30.21635 -81.30948,81.30947 -30.21636,51.09312 -30.21636,111.52583 0,60.43272 30.21636,111.52584 30.21636,51.09311 81.30948,81.30947 51.09311,30.21636 112.07522,30.21636 60.9821,0 112.07522,-30.21636 51.09312,-30.21636 81.30948,-81.30947 30.21636,-51.09312 30.21636,-111.52584 0,-60.43271 -30.21636,-111.52583 -30.21636,-51.09312 -81.30948,-81.30947 -51.09312,-30.21636 -111.52583,-30.21636 z m 0,151.63118 q 31.86452,0 54.93884,23.07431 23.0743,23.07431 23.0743,55.48822 0,32.41391 -23.0743,55.48822 -23.07431,23.07431 -55.48823,23.07431 -32.4139,0 -55.48821,-23.07431 -23.07431,-23.07431 -23.07431,-55.48822 0,-32.41391 23.07431,-55.48822 23.07431,-23.07431 56.0376,-23.07431 z"
     id="path2"
     style="stroke-width:1.09878" />
</svg>
