<?xml version="1.0" encoding="UTF-8" standalone="no"?>
<svg
   viewBox="0 0 45 45"
   width="45"
   height="45"
   version="1.1"
   id="svg4"
   sodipodi:docname="phone.svg"
   style="fill:#000000"
   inkscape:version="1.1.2 (0a00cf5339, 2022-02-04)"
   xmlns:inkscape="http://www.inkscape.org/namespaces/inkscape"
   xmlns:sodipodi="http://sodipodi.sourceforge.net/DTD/sodipodi-0.dtd"
   xmlns="http://www.w3.org/2000/svg"
   xmlns:svg="http://www.w3.org/2000/svg"
   xmlns:rdf="http://www.w3.org/1999/02/22-rdf-syntax-ns#"
   xmlns:cc="http://creativecommons.org/ns#"
   xmlns:dc="http://purl.org/dc/elements/1.1/">
  <metadata
     id="metadata10">
    <rdf:RDF>
      <cc:Work
         rdf:about="">
        <dc:format>image/svg+xml</dc:format>
        <dc:type
           rdf:resource="http://purl.org/dc/dcmitype/StillImage" />
      </cc:Work>
    </rdf:RDF>
  </metadata>
  <defs
     id="defs8" />
  <sodipodi:namedview
     pagecolor="#ffffff"
     bordercolor="#666666"
     borderopacity="1"
     objecttolerance="10"
     gridtolerance="10"
     guidetolerance="10"
     inkscape:pageopacity="0"
     inkscape:pageshadow="2"
     inkscape:window-width="1920"
     inkscape:window-height="990"
     id="namedview6"
     showgrid="false"
     inkscape:zoom="4.72"
     inkscape:cx="-9.5338983"
     inkscape:cy="20.127119"
     inkscape:window-x="0"
     inkscape:window-y="0"
     inkscape:window-maximized="1"
     inkscape:current-layer="svg4"
     inkscape:pagecheckerboard="0" />
  <path
     id="rect12"
     style="fill:#000000;stroke-width:0.92556268"
     d="M 0 0 L 0 45 L 45 45 L 45 0 L 0 0 z M 14.511719 9.1386719 C 15.183399 9.1675519 15.79967 9.5461841 16.171875 10.126953 C 16.595419 10.787938 17.253731 11.814331 18.109375 13.152344 C 18.89015 14.372706 18.943444 15.947933 18.246094 17.220703 L 16.679688 19.451172 C 16.256144 20.054402 16.172529 20.825622 16.457031 21.505859 C 16.899826 22.564718 17.758018 24.191612 19.283203 25.716797 C 20.808389 27.241983 22.435282 28.100173 23.494141 28.542969 C 24.174378 28.82747 24.945599 28.743856 25.548828 28.320312 L 27.779297 26.753906 C 29.052068 26.056556 30.627293 26.110919 31.847656 26.890625 C 33.185669 27.746269 34.212062 28.404582 34.873047 28.828125 C 35.453815 29.20033 35.83245 29.8166 35.861328 30.488281 C 36.026039 34.300175 33.071744 35.84375 32.212891 35.84375 C 31.618219 35.84375 24.469625 36.657125 16.40625 28.59375 C 8.342875 20.530375 9.15625 13.381782 9.15625 12.787109 C 9.15625 11.928257 10.699825 8.9739599 14.511719 9.1386719 z " />
</svg>
