<?xml version="1.0" encoding="UTF-8" standalone="no"?>
<!-- Created with Inkscape (http://www.inkscape.org/) -->

<svg
   version="1.1"
   id="svg2"
   width="64"
   height="64"
   viewBox="0 0 64 64"
   sodipodi:docname="logo.png"
   inkscape:version="1.1.2 (0a00cf5339, 2022-02-04)"
   xmlns:inkscape="http://www.inkscape.org/namespaces/inkscape"
   xmlns:sodipodi="http://sodipodi.sourceforge.net/DTD/sodipodi-0.dtd"
   xmlns="http://www.w3.org/2000/svg"
   xmlns:svg="http://www.w3.org/2000/svg">
  <defs
     id="defs6" />
  <sodipodi:namedview
     id="namedview4"
     pagecolor="#505050"
     bordercolor="#eeeeee"
     borderopacity="1"
     inkscape:pageshadow="0"
     inkscape:pageopacity="0"
     inkscape:pagecheckerboard="0"
     showgrid="false"
     inkscape:zoom="4.4636116"
     inkscape:cx="9.1853871"
     inkscape:cy="35.621379"
     inkscape:window-width="1920"
     inkscape:window-height="990"
     inkscape:window-x="0"
     inkscape:window-y="0"
     inkscape:window-maximized="1"
     inkscape:current-layer="g8" />
  <g
     inkscape:groupmode="layer"
     inkscape:label="Image"
     id="g8">
    <path
       style="fill:#ffffff;stroke-width:1.46731"
       d="m 27.044044,52.40134 c -1.189999,-2.730686 -2.521257,-6.120391 -2.958355,-7.532678 -0.612606,-1.979367 -2.411687,-2.567797 -7.850847,-2.567797 -9.733012,0 -13.5783454,-2.952959 -13.5783454,-10.427253 0,-14.156254 12.5869664,-24.7882369 29.3462404,-24.7882369 16.9957,0 29.353457,10.6298699 29.340757,25.2382659 C 61.332944,44.478256 50.79513,54.809509 36.706089,56.478147 29.28226,57.357389 29.186161,57.316843 27.044044,52.40134 Z M 45.252623,50.73791 C 54.545007,46.04354 58.855452,39.093211 58.022253,30.147659 57.258846,21.951444 53.283198,16.85858 44.474891,12.793283 24.822367,3.723058 -0.18070434,19.683156 6.4817628,37.045266 c 0.6740269,1.756485 3.0134455,2.320976 9.6188442,2.320976 h 8.728204 l 3.048937,7.336559 c 2.57489,6.195878 3.65459,7.33656 6.944336,7.33656 2.142468,0 6.836211,-1.485652 10.430539,-3.301451 z m -5.349816,-6.150367 c -1.424298,-3.711658 0.103399,-7.408382 3.248158,-7.859906 4.392156,-0.630626 7.100681,3.100817 5.042402,6.946747 -1.859826,3.475118 -7.086531,4.050811 -8.29056,0.913159 z m 6.773051,-3.020334 c 0,-1.222759 -1.304277,-2.200967 -2.934625,-2.200967 -2.923241,0 -3.81666,1.563481 -1.956415,3.423726 1.787083,1.787083 4.89104,1.011093 4.89104,-1.222759 z M 9.9930562,33.110606 c 0,-2.749536 0.7263718,-3.471606 3.3014528,-3.281893 2.191088,0.161413 3.301451,1.189314 3.301451,3.056236 0,1.800062 -1.188834,2.981855 -3.301451,3.281892 -2.6377,0.374614 -3.3014528,-0.239839 -3.3014528,-3.056235 z m 32.7746078,-0.44337 c -0.526288,-1.371483 -0.213725,-3.683592 0.69458,-5.138022 1.389886,-2.225562 1.136054,-2.717697 -1.602569,-3.107082 -2.530782,-0.359834 -3.254034,-1.436588 -3.254034,-4.844508 0,-3.051187 0.801182,-4.536135 2.638285,-4.889929 3.773518,-0.726713 7.239362,2.679281 6.52563,6.41294 -0.386726,2.023011 0.408767,3.824875 2.175803,4.928409 4.214667,2.632103 2.843675,8.08916 -2.17736,8.6667 -2.750504,0.316374 -4.349426,-0.332266 -5.000335,-2.028508 z m 6.842819,-2.925119 c 0,-1.162906 -0.990436,-2.114373 -2.200969,-2.114373 -2.21011,0 -3.016318,3.097483 -1.262651,4.851149 1.369358,1.369358 3.46362,-0.28542 3.46362,-2.736776 z M 45.208547,19.557529 c 0,-1.210534 -0.990436,-2.200969 -2.200969,-2.200969 -1.210532,0 -2.200968,0.990435 -2.200968,2.200969 0,1.210531 0.990436,2.200967 2.200968,2.200967 1.210533,0 2.200969,-0.990436 2.200969,-2.200967 z m -27.761665,4.543232 c -3.114292,-3.752493 -1.335213,-7.477857 3.57111,-7.477857 2.856882,0 4.761056,-0.927923 5.471483,-2.666304 0.760499,-1.86091 2.31178,-2.525742 5.135593,-2.200968 3.183231,0.366112 4.145123,1.327523 4.511045,4.508787 0.543479,4.724903 -3.044004,6.880317 -7.16653,4.305756 -2.225563,-1.389887 -2.717698,-1.136053 -3.107082,1.602569 -0.556797,3.916069 -5.77375,5.111272 -8.415619,1.928017 z m 5.751984,-3.075921 c 0,-1.210531 -0.990436,-2.200967 -2.200969,-2.200967 -1.210532,0 -2.200967,0.990436 -2.200967,2.200967 0,1.210533 0.990435,2.200969 2.200967,2.200969 1.210533,0 2.200969,-0.990436 2.200969,-2.200969 z m 10.271183,-4.401936 c 0,-1.210532 -0.990434,-2.200968 -2.200968,-2.200968 -2.291316,0 -2.911098,1.73539 -1.222759,3.423729 1.688339,1.688338 3.423727,1.068555 3.423727,-1.222761 z"
       id="path160"
       sodipodi:nodetypes="ssssssssssssscsssssssssssssssssssssssssssssssssssssssssssssssssss" />
    <path
       style="fill:#ffffff"
       id="path30"
       d="" />
  </g>
</svg>
