<?xml version="1.0" encoding="UTF-8" standalone="no"?>
<svg
   xmlns:dc="http://purl.org/dc/elements/1.1/"
   xmlns:cc="http://creativecommons.org/ns#"
   xmlns:rdf="http://www.w3.org/1999/02/22-rdf-syntax-ns#"
   xmlns:svg="http://www.w3.org/2000/svg"
   xmlns="http://www.w3.org/2000/svg"
   xmlns:sodipodi="http://sodipodi.sourceforge.net/DTD/sodipodi-0.dtd"
   xmlns:inkscape="http://www.inkscape.org/namespaces/inkscape"
   viewBox="0 0 45 45"
   width="45"
   height="45"
   version="1.1"
   id="svg4"
   sodipodi:docname="phone.svg"
   style="fill:#000000"
   inkscape:version="0.92.4 (5da689c313, 2019-01-14)">
  <metadata
     id="metadata10">
    <rdf:RDF>
      <cc:Work
         rdf:about="">
        <dc:format>image/svg+xml</dc:format>
        <dc:type
           rdf:resource="http://purl.org/dc/dcmitype/StillImage" />
      </cc:Work>
    </rdf:RDF>
  </metadata>
  <defs
     id="defs8" />
  <sodipodi:namedview
     pagecolor="#ffffff"
     bordercolor="#666666"
     borderopacity="1"
     objecttolerance="10"
     gridtolerance="10"
     guidetolerance="10"
     inkscape:pageopacity="0"
     inkscape:pageshadow="2"
     inkscape:window-width="1280"
     inkscape:window-height="963"
     id="namedview6"
     showgrid="false"
     inkscape:zoom="4.72"
     inkscape:cx="-9.5156553"
     inkscape:cy="20.232676"
     inkscape:window-x="0"
     inkscape:window-y="0"
     inkscape:window-maximized="1"
     inkscape:current-layer="svg4" />
  <rect
     style="fill:#000000;stroke-width:0.92556268"
     id="rect12"
     width="45"
     height="45"
     x="0"
     y="0" />
  <path
     d="m 14.511523,9.139157 c 0.67168,0.02888 1.28853,0.407316 1.660735,0.988085 0.423544,0.660985 1.080836,1.686822 1.93648,3.024835 0.780775,1.220362 0.835222,2.796553 0.137872,4.069323 l -1.566731,2.228935 c -0.423544,0.60323 -0.508022,1.375315 -0.22352,2.055552 0.442795,1.058859 1.301197,2.686187 2.826382,4.211372 1.525186,1.525186 3.152514,2.383587 4.211373,2.826383 0.680237,0.284501 1.452322,0.200024 2.055551,-0.22352 L 27.7786,26.753391 c 1.272771,-0.69735 2.848961,-0.641834 4.069324,0.137872 1.338013,0.855644 2.36385,1.512936 3.024835,1.936479 0.580768,0.372205 0.959207,0.989055 0.988085,1.660736 0.164711,3.811894 -2.788497,5.35613 -3.64735,5.35613 -0.594672,0 -7.743896,0.812544 -15.807271,-7.250831 C 8.342848,20.530402 9.155392,13.381179 9.155392,12.786506 c 0,-0.858852 1.544237,-3.812061 5.356131,-3.647349 z"
     id="path2"
     inkscape:connector-curvature="0"
     style="fill:#ffffff;stroke-width:1.06955504"
     sodipodi:nodetypes="ccccccsccccccsssc" />
</svg>
