<?xml version="1.0" encoding="UTF-8" standalone="no"?>
<svg
   width="24"
   height="24"
   viewBox="0 0 24 24"
   version="1.1"
   id="svg4"
   sodipodi:docname="xmpp.svg"
   inkscape:version="1.1.2 (0a00cf5339, 2022-02-04)"
   xmlns:inkscape="http://www.inkscape.org/namespaces/inkscape"
   xmlns:sodipodi="http://sodipodi.sourceforge.net/DTD/sodipodi-0.dtd"
   xmlns="http://www.w3.org/2000/svg"
   xmlns:svg="http://www.w3.org/2000/svg"
   xmlns:rdf="http://www.w3.org/1999/02/22-rdf-syntax-ns#"
   xmlns:cc="http://creativecommons.org/ns#"
   xmlns:dc="http://purl.org/dc/elements/1.1/">
  <metadata
     id="metadata10">
    <rdf:RDF>
      <cc:Work
         rdf:about="">
        <dc:format>image/svg+xml</dc:format>
        <dc:type
           rdf:resource="http://purl.org/dc/dcmitype/StillImage" />
      </cc:Work>
    </rdf:RDF>
  </metadata>
  <defs
     id="defs8" />
  <sodipodi:namedview
     pagecolor="#ffffff"
     bordercolor="#666666"
     borderopacity="1"
     objecttolerance="10"
     gridtolerance="10"
     guidetolerance="10"
     inkscape:pageopacity="0"
     inkscape:pageshadow="2"
     inkscape:window-width="1920"
     inkscape:window-height="990"
     id="namedview6"
     showgrid="false"
     inkscape:zoom="19.666667"
     inkscape:cx="1.9830509"
     inkscape:cy="10.067797"
     inkscape:window-x="0"
     inkscape:window-y="0"
     inkscape:window-maximized="1"
     inkscape:current-layer="svg4"
     inkscape:pagecheckerboard="0" />
  <path
     id="path2"
     d="M 0 0 L 0 24 L 24 24 L 24 0 L 0 0 z M 2.9140625 2.6445312 L 3.3554688 2.8203125 C 5.0493021 3.4927063 5.8818162 3.7926479 7.1230469 4.1757812 L 8.5351562 4.6113281 L 8.5917969 5.5195312 C 8.6547949 6.5438713 8.7947724 7.2104255 9.1699219 8.2734375 C 9.663598 9.6723346 10.653194 11.377624 11.523438 12.330078 L 11.902344 12.746094 L 12.275391 12.332031 C 14.023708 10.400146 15.310547 7.3539809 15.310547 5.1445312 L 15.310547 4.5039062 L 16.660156 4.109375 C 17.403001 3.8921569 18.618482 3.4789512 19.361328 3.1914062 L 20.712891 2.6679688 L 20.712891 2.9980469 C 20.712891 3.473806 20.412522 4.8739945 20.160156 5.5761719 C 19.135083 8.4290113 16.781975 11.269311 13.833984 13.212891 L 12.980469 13.775391 L 13.251953 13.978516 C 14.070505 14.592902 15.010256 15.086733 15.888672 15.365234 C 16.841032 15.667281 16.273231 15.80622 15.101562 15.558594 C 14.3677 15.402659 13.267413 15.029567 12.457031 14.660156 L 11.830078 14.375 L 11.013672 14.708984 C 10.158865 15.058904 8.6577148 15.481215 7.9121094 15.580078 C 7.2887106 15.662728 7.3915181 15.470535 8.0976562 15.232422 C 8.7436657 15.01458 9.8195689 14.468045 10.365234 14.080078 L 10.75 13.804688 L 9.9335938 13.267578 C 8.8350284 12.545752 8.2005463 12.029139 7.1777344 11.021484 C 4.6794923 8.5605105 3.268107 5.9149155 2.9648438 3.1230469 L 2.9140625 2.6445312 z M 6.125 18.34375 L 6.6875 18.369141 L 7.25 18.396484 L 6.625 19.074219 C 6.2813806 19.447373 6.0019531 19.782888 6.0019531 19.820312 C 6.0019531 19.857733 6.3275236 20.216278 6.7265625 20.617188 L 7.4511719 21.345703 L 6.8300781 21.347656 L 6.2089844 21.347656 L 5.703125 20.789062 L 5.1972656 20.230469 L 4.6757812 20.789062 L 4.1542969 21.345703 L 3.5722656 21.345703 L 2.9902344 21.345703 L 3.7109375 20.589844 L 4.4316406 19.832031 L 4.2402344 19.613281 C 4.1345102 19.49321 3.8413209 19.168821 3.5898438 18.894531 L 3.1328125 18.396484 L 3.6953125 18.371094 L 4.2578125 18.347656 L 4.7285156 18.857422 L 5.2011719 19.367188 L 5.6640625 18.855469 L 6.125 18.34375 z M 7.8300781 18.355469 L 8.5292969 18.355469 L 9.2285156 18.355469 L 9.7441406 19.324219 L 10.259766 20.292969 L 10.769531 19.326172 L 11.279297 18.357422 L 12.005859 18.355469 L 12.734375 18.355469 L 12.734375 19.851562 L 12.734375 21.347656 L 12.275391 21.347656 L 11.818359 21.347656 L 11.818359 20.246094 L 11.818359 19.144531 L 11.216797 20.224609 L 10.613281 21.304688 L 10.267578 21.330078 L 9.921875 21.355469 L 9.3125 20.25 L 8.703125 19.144531 L 8.6796875 20.246094 L 8.65625 21.347656 L 8.2421875 21.347656 L 7.8300781 21.347656 L 7.8300781 19.851562 L 7.8300781 18.355469 z M 13.398438 18.355469 L 14.857422 18.355469 C 16.478917 18.355469 16.704758 18.409562 16.886719 18.849609 C 16.949089 19.000867 16.976748 19.306229 16.955078 19.605469 C 16.925608 20.012772 16.877417 20.149742 16.695312 20.332031 C 16.477674 20.549873 16.435783 20.559428 15.390625 20.585938 L 14.3125 20.613281 L 14.3125 20.980469 L 14.3125 21.347656 L 13.855469 21.347656 L 13.398438 21.347656 L 13.398438 19.851562 L 13.398438 18.355469 z M 17.470703 18.355469 L 19.007812 18.355469 L 20.542969 18.355469 L 20.814453 18.597656 C 21.072074 18.827972 21.085938 18.868928 21.085938 19.421875 C 21.085938 19.883132 21.049657 20.054121 20.912109 20.238281 C 20.683711 20.544226 20.520115 20.581973 19.361328 20.591797 L 18.384766 20.607422 L 18.384766 20.980469 L 18.384766 21.353516 L 17.927734 21.353516 L 17.470703 21.353516 L 17.470703 19.857422 L 17.470703 19.851562 L 17.470703 18.355469 z M 14.3125 19.019531 L 14.3125 19.435547 L 14.3125 19.851562 L 15.085938 19.851562 C 15.576323 19.851562 15.895705 19.815883 15.958984 19.751953 C 16.098858 19.611611 16.082728 19.305391 15.927734 19.150391 C 15.828554 19.050591 15.618504 19.019531 15.054688 19.019531 L 14.3125 19.019531 z M 19.392578 19.035156 C 19.302146 19.0335 19.206269 19.033989 19.111328 19.037109 L 18.427734 19.060547 L 18.402344 19.455078 L 18.376953 19.851562 L 19.121094 19.851562 C 19.531282 19.851562 19.927693 19.827291 20 19.800781 C 20.200034 19.724371 20.172543 19.215789 19.962891 19.103516 C 19.893418 19.066091 19.663875 19.040125 19.392578 19.035156 z " />
</svg>
