<?xml version="1.0" encoding="UTF-8" standalone="no"?>
<!-- Generator: Adobe Illustrator 24.1.1, SVG Export Plug-In . SVG Version: 6.00 Build 0)  -->

<svg
   version="1.1"
   id="Layer_1"
   x="0px"
   y="0px"
   viewBox="0 0 512 512"
   style="enable-background:new 0 0 512 512;"
   xml:space="preserve"
   sodipodi:docname="yii.svg"
   inkscape:version="1.1.2 (0a00cf5339, 2022-02-04)"
   xmlns:inkscape="http://www.inkscape.org/namespaces/inkscape"
   xmlns:sodipodi="http://sodipodi.sourceforge.net/DTD/sodipodi-0.dtd"
   xmlns="http://www.w3.org/2000/svg"
   xmlns:svg="http://www.w3.org/2000/svg"><defs
   id="defs11" /><sodipodi:namedview
   id="namedview9"
   pagecolor="#505050"
   bordercolor="#eeeeee"
   borderopacity="1"
   inkscape:pageshadow="0"
   inkscape:pageopacity="0"
   inkscape:pagecheckerboard="0"
   showgrid="false"
   inkscape:zoom="1.578125"
   inkscape:cx="256"
   inkscape:cy="256"
   inkscape:window-width="1920"
   inkscape:window-height="990"
   inkscape:window-x="0"
   inkscape:window-y="0"
   inkscape:window-maximized="1"
   inkscape:current-layer="Layer_1" />
<style
   type="text/css"
   id="style2">
	.st0{fill:#444444;}
</style>
<g
   id="g6"
   style="fill:#000000">
	<path
   class="st0"
   d="M431.9,0c-58.1,2.2-128.8,75.2-104.6,143.3c25.6,67.6,42,115.6,45.4,191c61.4-61.8,117.9-128.9,122.4-206.8   C496.6,64.3,466.7,17.7,431.9,0L431.9,0z M278.6,280.5c-8.7,15.6-20.2,32.5-35.1,51.1c-31.4,39.5-63,104.4-53.3,180.4   c129.6-14.3,170-111.5,173.6-165C339.4,310.2,295.1,287.5,278.6,280.5z M17.3,47.2c-4.6,59.5,20.8,147.9,124,176.1   c43.4,12.9,73.9,20.8,106.8,32.7c48.2,17.5,85.9,39.8,115.9,78.4c-5.6-66.3-32.9-142.3-76.5-201.6C225.2,48.2,117.5,7.6,17.3,47.2   L17.3,47.2z"
   id="path4"
   style="fill:#000000" />
</g>
</svg>
